<mxfile host="Electron" agent="Mozilla/5.0 (X11; Linux x86_64) AppleWebKit/537.36 (KHTML, like Gecko) draw.io/26.0.16 Chrome/132.0.6834.196 Electron/34.2.0 Safari/537.36" version="26.0.16">
  <diagram name="Page-1" id="PJgCdanIaGpkUApIPNjL">
    <mxGraphModel dx="7284" dy="2024" grid="1" gridSize="10" guides="1" tooltips="1" connect="1" arrows="1" fold="1" page="1" pageScale="1" pageWidth="827" pageHeight="1169" math="0" shadow="0">
      <root>
        <mxCell id="0" />
        <mxCell id="1" parent="0" />
        <mxCell id="8pZrykISCQyfhMCrtGH4-2" value="" style="rounded=0;whiteSpace=wrap;html=1;fillColor=none;strokeWidth=4;" parent="1" vertex="1">
          <mxGeometry x="940" y="2060" width="2040" height="1030" as="geometry" />
        </mxCell>
        <mxCell id="8pZrykISCQyfhMCrtGH4-3" value="" style="rounded=1;whiteSpace=wrap;html=1;fillColor=#E6E6E6;strokeWidth=4;shadow=0;glass=0;autosize=0;resizeWidth=0;imageHeight=24;imageAspect=1;perimeter=rectanglePerimeter;arcSize=12;" parent="1" vertex="1">
          <mxGeometry x="1014.86" y="2180" width="1895" height="850" as="geometry" />
        </mxCell>
        <mxCell id="8pZrykISCQyfhMCrtGH4-4" value="&lt;font face=&quot;MS Mincho, ＭＳ 明朝&quot;&gt;&lt;span style=&quot;font-size: 62px; text-wrap-mode: nowrap;&quot;&gt;MSHRMatch&lt;/span&gt;&lt;/font&gt;" style="rounded=1;whiteSpace=wrap;html=1;fillColor=#CCCCCC;strokeWidth=4;shadow=0;glass=0;autosize=0;resizeWidth=0;imageHeight=24;imageAspect=1;perimeter=rectanglePerimeter;arcSize=21;" parent="1" vertex="1">
          <mxGeometry x="2150" y="2200" width="381.01" height="170" as="geometry" />
        </mxCell>
        <mxCell id="8pZrykISCQyfhMCrtGH4-5" value="&lt;font face=&quot;MS Mincho, ＭＳ 明朝&quot;&gt;&lt;span style=&quot;font-size: 62px; text-wrap-mode: nowrap;&quot;&gt;Position&lt;/span&gt;&lt;/font&gt;&lt;div&gt;&lt;font face=&quot;MS Mincho, ＭＳ 明朝&quot;&gt;&lt;span style=&quot;font-size: 62px; text-wrap-mode: nowrap;&quot;&gt;Match&lt;/span&gt;&lt;/font&gt;&lt;/div&gt;" style="rounded=1;whiteSpace=wrap;html=1;fillColor=#CCCCCC;strokeWidth=4;shadow=0;glass=0;autosize=0;resizeWidth=0;imageHeight=24;imageAspect=1;perimeter=rectanglePerimeter;arcSize=21;" parent="1" vertex="1">
          <mxGeometry x="2150" y="2430" width="381.01" height="170" as="geometry" />
        </mxCell>
        <mxCell id="8pZrykISCQyfhMCrtGH4-6" value="&lt;span style=&quot;font-family: &amp;quot;MS Mincho&amp;quot;, &amp;quot;ＭＳ 明朝&amp;quot;; font-size: 62px; text-wrap-mode: nowrap;&quot;&gt;MUX&lt;/span&gt;" style="shape=trapezoid;perimeter=trapezoidPerimeter;whiteSpace=wrap;html=1;fixedSize=1;fillColor=default;strokeWidth=4;direction=south;size=42.000000000000455;movable=1;resizable=1;rotatable=1;deletable=1;editable=1;locked=0;connectable=1;container=0;textDirection=vertical-lr;" parent="1" vertex="1">
          <mxGeometry x="1250" y="2218" width="110" height="212" as="geometry" />
        </mxCell>
        <mxCell id="8pZrykISCQyfhMCrtGH4-9" value="&lt;span style=&quot;font-family: &amp;quot;MS Mincho&amp;quot;, &amp;quot;ＭＳ 明朝&amp;quot;; font-size: 62px; text-wrap-mode: nowrap;&quot;&gt;MUX&lt;/span&gt;" style="shape=trapezoid;perimeter=trapezoidPerimeter;whiteSpace=wrap;html=1;fixedSize=1;fillColor=default;strokeWidth=4;direction=south;size=42.000000000000455;movable=1;resizable=1;rotatable=1;deletable=1;editable=1;locked=0;connectable=1;container=0;textDirection=vertical-lr;" parent="1" vertex="1">
          <mxGeometry x="1250" y="2453" width="110" height="212" as="geometry" />
        </mxCell>
        <mxCell id="8pZrykISCQyfhMCrtGH4-10" value="&lt;span style=&quot;font-family: &amp;quot;MS Mincho&amp;quot;, &amp;quot;ＭＳ 明朝&amp;quot;; font-size: 62px; text-wrap-mode: nowrap;&quot;&gt;MUX&lt;/span&gt;" style="shape=trapezoid;perimeter=trapezoidPerimeter;whiteSpace=wrap;html=1;fixedSize=1;fillColor=default;strokeWidth=4;direction=south;size=42.000000000000455;movable=1;resizable=1;rotatable=1;deletable=1;editable=1;locked=0;connectable=1;container=0;textDirection=vertical-lr;" parent="1" vertex="1">
          <mxGeometry x="1250" y="2695" width="110" height="212" as="geometry" />
        </mxCell>
        <mxCell id="8pZrykISCQyfhMCrtGH4-13" value="" style="group;fillColor=default;" parent="1" vertex="1" connectable="0">
          <mxGeometry x="1589" y="2235" width="195" height="176" as="geometry" />
        </mxCell>
        <mxCell id="8pZrykISCQyfhMCrtGH4-11" value="&lt;span style=&quot;font-family: &amp;quot;MS Mincho&amp;quot;, &amp;quot;ＭＳ 明朝&amp;quot;; font-size: 48px; text-wrap-mode: nowrap;&quot;&gt;paddr&lt;/span&gt;" style="rounded=0;whiteSpace=wrap;html=1;fillColor=none;strokeWidth=4;" parent="8pZrykISCQyfhMCrtGH4-13" vertex="1">
          <mxGeometry width="195" height="176" as="geometry" />
        </mxCell>
        <mxCell id="8pZrykISCQyfhMCrtGH4-12" value="" style="triangle;whiteSpace=wrap;html=1;fillColor=none;strokeWidth=4;" parent="8pZrykISCQyfhMCrtGH4-13" vertex="1">
          <mxGeometry y="114" width="35" height="45" as="geometry" />
        </mxCell>
        <mxCell id="8pZrykISCQyfhMCrtGH4-15" value="" style="group;fillColor=default;" parent="1" vertex="1" connectable="0">
          <mxGeometry x="1590" y="2470" width="195" height="176" as="geometry" />
        </mxCell>
        <mxCell id="8pZrykISCQyfhMCrtGH4-16" value="&lt;span style=&quot;font-family: &amp;quot;MS Mincho&amp;quot;, &amp;quot;ＭＳ 明朝&amp;quot;; font-size: 48px; text-wrap-mode: nowrap;&quot;&gt;vsetIdx&lt;/span&gt;" style="rounded=0;whiteSpace=wrap;html=1;fillColor=none;strokeWidth=4;" parent="8pZrykISCQyfhMCrtGH4-15" vertex="1">
          <mxGeometry width="195" height="176" as="geometry" />
        </mxCell>
        <mxCell id="8pZrykISCQyfhMCrtGH4-17" value="" style="triangle;whiteSpace=wrap;html=1;fillColor=none;strokeWidth=4;" parent="8pZrykISCQyfhMCrtGH4-15" vertex="1">
          <mxGeometry y="114" width="35" height="45" as="geometry" />
        </mxCell>
        <mxCell id="8pZrykISCQyfhMCrtGH4-18" value="" style="group;fillColor=default;" parent="1" vertex="1" connectable="0">
          <mxGeometry x="1590" y="2710" width="195" height="176" as="geometry" />
        </mxCell>
        <mxCell id="8pZrykISCQyfhMCrtGH4-19" value="&lt;span style=&quot;font-family: &amp;quot;MS Mincho&amp;quot;, &amp;quot;ＭＳ 明朝&amp;quot;; font-size: 48px; text-wrap-mode: nowrap;&quot;&gt;way&lt;/span&gt;" style="rounded=0;whiteSpace=wrap;html=1;fillColor=none;strokeWidth=4;" parent="8pZrykISCQyfhMCrtGH4-18" vertex="1">
          <mxGeometry width="195" height="176" as="geometry" />
        </mxCell>
        <mxCell id="8pZrykISCQyfhMCrtGH4-20" value="" style="triangle;whiteSpace=wrap;html=1;fillColor=none;strokeWidth=4;" parent="8pZrykISCQyfhMCrtGH4-18" vertex="1">
          <mxGeometry y="114" width="35" height="45" as="geometry" />
        </mxCell>
        <mxCell id="8pZrykISCQyfhMCrtGH4-21" value="&lt;span style=&quot;font-family: &amp;quot;MS Mincho&amp;quot;, &amp;quot;ＭＳ 明朝&amp;quot;; font-size: 62px; text-wrap-mode: nowrap;&quot;&gt;MUX&lt;/span&gt;" style="shape=trapezoid;perimeter=trapezoidPerimeter;whiteSpace=wrap;html=1;fixedSize=1;fillColor=default;strokeWidth=4;direction=south;size=42.000000000000455;movable=1;resizable=1;rotatable=1;deletable=1;editable=1;locked=0;connectable=1;container=0;textDirection=vertical-lr;" parent="1" vertex="1">
          <mxGeometry x="2660.99" y="2630" width="110" height="340" as="geometry" />
        </mxCell>
        <mxCell id="8pZrykISCQyfhMCrtGH4-25" value="" style="endArrow=classic;html=1;rounded=0;strokeWidth=4;endFill=1;startArrow=none;startFill=0;endSize=28;targetPerimeterSpacing=0;entryX=0.838;entryY=1.001;entryDx=0;entryDy=0;exitX=0.999;exitY=0.424;exitDx=0;exitDy=0;exitPerimeter=0;entryPerimeter=0;" parent="1" target="8pZrykISCQyfhMCrtGH4-21" edge="1">
          <mxGeometry width="50" height="50" relative="1" as="geometry">
            <mxPoint x="2338" y="2915" as="sourcePoint" />
            <mxPoint x="2648" y="2916" as="targetPoint" />
          </mxGeometry>
        </mxCell>
        <mxCell id="8pZrykISCQyfhMCrtGH4-26" value="&lt;font face=&quot;MS Mincho,ＭＳ 明朝&quot; style=&quot;font-size: 48px;&quot;&gt;b0000&lt;/font&gt;" style="edgeLabel;html=1;align=center;verticalAlign=middle;resizable=0;points=[];labelBackgroundColor=default;" parent="1" vertex="1" connectable="0">
          <mxGeometry x="2269.996582144152" y="3009.9964635985943" as="geometry">
            <mxPoint x="2" y="-93" as="offset" />
          </mxGeometry>
        </mxCell>
        <mxCell id="8pZrykISCQyfhMCrtGH4-27" value="&lt;font face=&quot;MS Mincho, ＭＳ 明朝&quot;&gt;&lt;span style=&quot;font-size: 48px;&quot;&gt;prefetcher.io.wayLookupWrite&lt;/span&gt;&lt;/font&gt;" style="edgeLabel;html=1;align=center;verticalAlign=middle;resizable=0;points=[];labelBackgroundColor=default;" parent="1" vertex="1" connectable="0">
          <mxGeometry x="1069.9965821441522" y="2099.9964635985943" as="geometry">
            <mxPoint x="2" y="-93" as="offset" />
          </mxGeometry>
        </mxCell>
        <mxCell id="8pZrykISCQyfhMCrtGH4-29" value="&lt;font face=&quot;MS Mincho, ＭＳ 明朝&quot;&gt;&lt;span style=&quot;font-size: 48px;&quot;&gt;missunit.io.fetchresp&lt;/span&gt;&lt;/font&gt;" style="edgeLabel;html=1;align=center;verticalAlign=middle;resizable=0;points=[];labelBackgroundColor=default;" parent="1" vertex="1" connectable="0">
          <mxGeometry x="2029.9965821441522" y="2099.9964635985943" as="geometry">
            <mxPoint x="2" y="-93" as="offset" />
          </mxGeometry>
        </mxCell>
        <mxCell id="8pZrykISCQyfhMCrtGH4-31" value="" style="endArrow=classic;html=1;rounded=0;strokeWidth=4;endFill=1;startArrow=none;startFill=0;endSize=28;targetPerimeterSpacing=0;entryX=0.307;entryY=1.003;entryDx=0;entryDy=0;exitX=0.065;exitY=0;exitDx=0;exitDy=0;exitPerimeter=0;entryPerimeter=0;" parent="1" target="8pZrykISCQyfhMCrtGH4-10" edge="1">
          <mxGeometry width="50" height="50" relative="1" as="geometry">
            <mxPoint x="1075.0038499999996" y="2060" as="sourcePoint" />
            <mxPoint x="1248.5500000000002" y="2283.932" as="targetPoint" />
            <Array as="points">
              <mxPoint x="1075" y="2760" />
            </Array>
          </mxGeometry>
        </mxCell>
        <mxCell id="8pZrykISCQyfhMCrtGH4-24" value="&lt;font face=&quot;MS Mincho,ＭＳ 明朝&quot; style=&quot;font-size: 48px;&quot;&gt;enq_req&lt;/font&gt;" style="edgeLabel;html=1;align=center;verticalAlign=middle;resizable=0;points=[];labelBackgroundColor=default;" parent="1" vertex="1" connectable="0">
          <mxGeometry x="1099.9965821441522" y="2209.9964635985943" as="geometry">
            <mxPoint x="2" y="-93" as="offset" />
          </mxGeometry>
        </mxCell>
        <mxCell id="8pZrykISCQyfhMCrtGH4-34" value="" style="endArrow=classic;html=1;rounded=0;strokeWidth=4;endFill=1;startArrow=none;startFill=0;endSize=28;targetPerimeterSpacing=0;entryX=0.113;entryY=0.409;entryDx=0;entryDy=0;entryPerimeter=0;" parent="1" target="8pZrykISCQyfhMCrtGH4-10" edge="1">
          <mxGeometry width="50" height="50" relative="1" as="geometry">
            <mxPoint x="1470" y="2060" as="sourcePoint" />
            <mxPoint x="1305" y="2240.59" as="targetPoint" />
            <Array as="points">
              <mxPoint x="1470" y="2720" />
            </Array>
          </mxGeometry>
        </mxCell>
        <mxCell id="8pZrykISCQyfhMCrtGH4-38" value="" style="endArrow=classic;html=1;rounded=0;strokeWidth=4;endFill=1;startArrow=none;startFill=0;endSize=28;targetPerimeterSpacing=0;entryX=0;entryY=0.5;entryDx=0;entryDy=0;exitX=0.5;exitY=0;exitDx=0;exitDy=0;" parent="1" source="8pZrykISCQyfhMCrtGH4-10" target="8pZrykISCQyfhMCrtGH4-19" edge="1">
          <mxGeometry width="50" height="50" relative="1" as="geometry">
            <mxPoint x="1280" y="2800" as="sourcePoint" />
            <mxPoint x="1560" y="2800" as="targetPoint" />
          </mxGeometry>
        </mxCell>
        <mxCell id="8pZrykISCQyfhMCrtGH4-39" value="" style="endArrow=classic;html=1;rounded=0;strokeWidth=4;endFill=1;startArrow=none;startFill=0;endSize=28;targetPerimeterSpacing=0;entryX=0.5;entryY=1;entryDx=0;entryDy=0;exitX=1;exitY=0.5;exitDx=0;exitDy=0;" parent="1" source="8pZrykISCQyfhMCrtGH4-19" target="8pZrykISCQyfhMCrtGH4-21" edge="1">
          <mxGeometry width="50" height="50" relative="1" as="geometry">
            <mxPoint x="1800" y="2799.5" as="sourcePoint" />
            <mxPoint x="2030" y="2796.5" as="targetPoint" />
          </mxGeometry>
        </mxCell>
        <mxCell id="8pZrykISCQyfhMCrtGH4-23" value="&lt;font face=&quot;MS Mincho,ＭＳ 明朝&quot; style=&quot;font-size: 48px;&quot;&gt;enq_fire&lt;/font&gt;" style="edgeLabel;html=1;align=center;verticalAlign=middle;resizable=0;points=[];labelBackgroundColor=default;" parent="1" vertex="1" connectable="0">
          <mxGeometry x="1479.9965821441522" y="2209.9964635985943" as="geometry">
            <mxPoint x="2" y="-93" as="offset" />
          </mxGeometry>
        </mxCell>
        <mxCell id="8pZrykISCQyfhMCrtGH4-48" value="" style="endArrow=classic;html=1;rounded=0;strokeWidth=4;endFill=1;startArrow=none;startFill=0;endSize=28;targetPerimeterSpacing=0;entryX=0.146;entryY=1.005;entryDx=0;entryDy=0;entryPerimeter=0;exitX=0.5;exitY=0;exitDx=0;exitDy=0;" parent="1" source="8pZrykISCQyfhMCrtGH4-2" target="8pZrykISCQyfhMCrtGH4-21" edge="1">
          <mxGeometry width="50" height="50" relative="1" as="geometry">
            <mxPoint x="1950" y="1960" as="sourcePoint" />
            <mxPoint x="2230" y="1960" as="targetPoint" />
            <Array as="points">
              <mxPoint x="1962" y="2680" />
            </Array>
          </mxGeometry>
        </mxCell>
        <mxCell id="8pZrykISCQyfhMCrtGH4-49" value="" style="endArrow=classic;html=1;rounded=0;strokeWidth=4;endFill=1;startArrow=none;startFill=0;endSize=28;targetPerimeterSpacing=0;entryX=-0.004;entryY=0.364;entryDx=0;entryDy=0;entryPerimeter=0;" parent="1" edge="1">
          <mxGeometry width="50" height="50" relative="1" as="geometry">
            <mxPoint x="1960" y="2235" as="sourcePoint" />
            <mxPoint x="2150" y="2235" as="targetPoint" />
          </mxGeometry>
        </mxCell>
        <mxCell id="8pZrykISCQyfhMCrtGH4-50" value="" style="endArrow=classic;html=1;rounded=0;strokeWidth=4;endFill=1;startArrow=none;startFill=0;endSize=28;targetPerimeterSpacing=0;entryX=-0.004;entryY=0.364;entryDx=0;entryDy=0;entryPerimeter=0;" parent="1" edge="1">
          <mxGeometry width="50" height="50" relative="1" as="geometry">
            <mxPoint x="1960" y="2470" as="sourcePoint" />
            <mxPoint x="2150" y="2470" as="targetPoint" />
          </mxGeometry>
        </mxCell>
        <mxCell id="8pZrykISCQyfhMCrtGH4-51" value="" style="endArrow=classic;html=1;rounded=0;strokeWidth=4;endFill=1;startArrow=none;startFill=0;endSize=28;targetPerimeterSpacing=0;entryX=0;entryY=0.25;entryDx=0;entryDy=0;" parent="1" target="8pZrykISCQyfhMCrtGH4-21" edge="1">
          <mxGeometry width="50" height="50" relative="1" as="geometry">
            <mxPoint x="2531.01" y="2284.5" as="sourcePoint" />
            <mxPoint x="2721.01" y="2284.5" as="targetPoint" />
            <Array as="points">
              <mxPoint x="2740" y="2285" />
            </Array>
          </mxGeometry>
        </mxCell>
        <mxCell id="8pZrykISCQyfhMCrtGH4-52" value="" style="endArrow=classic;html=1;rounded=0;strokeWidth=4;endFill=1;startArrow=none;startFill=0;endSize=28;targetPerimeterSpacing=0;entryX=0;entryY=0.75;entryDx=0;entryDy=0;" parent="1" target="8pZrykISCQyfhMCrtGH4-21" edge="1">
          <mxGeometry width="50" height="50" relative="1" as="geometry">
            <mxPoint x="2530" y="2518.5" as="sourcePoint" />
            <mxPoint x="2720" y="2518.5" as="targetPoint" />
            <Array as="points">
              <mxPoint x="2690" y="2520" />
            </Array>
          </mxGeometry>
        </mxCell>
        <mxCell id="8pZrykISCQyfhMCrtGH4-53" value="" style="endArrow=classic;html=1;rounded=0;strokeWidth=4;endFill=1;startArrow=none;startFill=0;endSize=28;targetPerimeterSpacing=0;entryX=0.679;entryY=1.005;entryDx=0;entryDy=0;entryPerimeter=0;" parent="1" target="8pZrykISCQyfhMCrtGH4-10" edge="1">
          <mxGeometry width="50" height="50" relative="1" as="geometry">
            <mxPoint x="2770.99" y="2800.5" as="sourcePoint" />
            <mxPoint x="2960.99" y="2800.5" as="targetPoint" />
            <Array as="points">
              <mxPoint x="2810" y="2800" />
              <mxPoint x="2810" y="2990" />
              <mxPoint x="1080" y="2990" />
              <mxPoint x="1080" y="2839" />
            </Array>
          </mxGeometry>
        </mxCell>
        <mxCell id="8pZrykISCQyfhMCrtGH4-22" value="&lt;font face=&quot;MS Mincho,ＭＳ 明朝&quot; style=&quot;font-size: 48px;&quot;&gt;fetch_resp&lt;/font&gt;" style="edgeLabel;html=1;align=center;verticalAlign=middle;resizable=0;points=[];labelBackgroundColor=default;" parent="1" vertex="1" connectable="0">
          <mxGeometry x="1949.9965821441522" y="2199.9964635985943" as="geometry">
            <mxPoint x="2" y="-93" as="offset" />
          </mxGeometry>
        </mxCell>
        <mxCell id="8pZrykISCQyfhMCrtGH4-54" value="&lt;font face=&quot;MS Mincho,ＭＳ 明朝&quot; style=&quot;font-size: 48px;&quot;&gt;fetch_resp_way&lt;/font&gt;" style="edgeLabel;html=1;align=center;verticalAlign=middle;resizable=0;points=[];labelBackgroundColor=default;" parent="1" vertex="1" connectable="0">
          <mxGeometry x="2340.506582144152" y="2769.9964635985943" as="geometry">
            <mxPoint x="2" y="-93" as="offset" />
          </mxGeometry>
        </mxCell>
        <mxCell id="8pZrykISCQyfhMCrtGH4-55" value="" style="endArrow=classic;html=1;rounded=0;strokeWidth=4;endFill=1;startArrow=none;startFill=0;endSize=28;targetPerimeterSpacing=0;entryX=0;entryY=0.5;entryDx=0;entryDy=0;exitX=0.5;exitY=0;exitDx=0;exitDy=0;jumpStyle=arc;jumpSize=22;" parent="1" edge="1">
          <mxGeometry width="50" height="50" relative="1" as="geometry">
            <mxPoint x="1360" y="2324.5" as="sourcePoint" />
            <mxPoint x="1590" y="2321.5" as="targetPoint" />
          </mxGeometry>
        </mxCell>
        <mxCell id="8pZrykISCQyfhMCrtGH4-56" value="" style="endArrow=classic;html=1;rounded=0;strokeWidth=4;endFill=1;startArrow=none;startFill=0;endSize=28;targetPerimeterSpacing=0;entryX=0;entryY=0.5;entryDx=0;entryDy=0;exitX=0.5;exitY=0;exitDx=0;exitDy=0;jumpStyle=arc;jumpSize=22;" parent="1" edge="1">
          <mxGeometry width="50" height="50" relative="1" as="geometry">
            <mxPoint x="1359" y="2559.5" as="sourcePoint" />
            <mxPoint x="1589" y="2556.5" as="targetPoint" />
          </mxGeometry>
        </mxCell>
        <mxCell id="8pZrykISCQyfhMCrtGH4-57" value="" style="endArrow=classic;html=1;rounded=0;strokeWidth=4;endFill=1;startArrow=none;startFill=0;endSize=28;targetPerimeterSpacing=0;entryX=-0.003;entryY=0.728;entryDx=0;entryDy=0;exitX=1;exitY=0.5;exitDx=0;exitDy=0;jumpStyle=arc;jumpSize=22;entryPerimeter=0;" parent="1" source="8pZrykISCQyfhMCrtGH4-11" target="8pZrykISCQyfhMCrtGH4-4" edge="1">
          <mxGeometry width="50" height="50" relative="1" as="geometry">
            <mxPoint x="1784" y="2324.5" as="sourcePoint" />
            <mxPoint x="2014" y="2321.5" as="targetPoint" />
          </mxGeometry>
        </mxCell>
        <mxCell id="8pZrykISCQyfhMCrtGH4-58" value="" style="endArrow=classic;html=1;rounded=0;strokeWidth=4;endFill=1;startArrow=none;startFill=0;endSize=28;targetPerimeterSpacing=0;entryX=-0.003;entryY=0.728;entryDx=0;entryDy=0;exitX=1;exitY=0.5;exitDx=0;exitDy=0;jumpStyle=arc;jumpSize=22;entryPerimeter=0;" parent="1" edge="1">
          <mxGeometry width="50" height="50" relative="1" as="geometry">
            <mxPoint x="1784.5" y="2557.5" as="sourcePoint" />
            <mxPoint x="2149.5" y="2558.5" as="targetPoint" />
          </mxGeometry>
        </mxCell>
        <mxCell id="8pZrykISCQyfhMCrtGH4-59" value="" style="endArrow=classic;html=1;rounded=0;strokeWidth=4;endFill=1;startArrow=none;startFill=0;endSize=28;entryX=-0.004;entryY=0.364;entryDx=0;entryDy=0;entryPerimeter=0;sourcePerimeterSpacing=0;" parent="1" edge="1">
          <mxGeometry width="50" height="50" relative="1" as="geometry">
            <mxPoint x="1470" y="2474" as="sourcePoint" />
            <mxPoint x="1308" y="2474" as="targetPoint" />
          </mxGeometry>
        </mxCell>
        <mxCell id="8pZrykISCQyfhMCrtGH4-60" value="" style="endArrow=classic;html=1;rounded=0;strokeWidth=4;endFill=1;startArrow=none;startFill=0;endSize=28;entryX=-0.004;entryY=0.364;entryDx=0;entryDy=0;entryPerimeter=0;sourcePerimeterSpacing=0;" parent="1" edge="1">
          <mxGeometry width="50" height="50" relative="1" as="geometry">
            <mxPoint x="1472" y="2240" as="sourcePoint" />
            <mxPoint x="1310" y="2240" as="targetPoint" />
          </mxGeometry>
        </mxCell>
        <mxCell id="8pZrykISCQyfhMCrtGH4-61" value="" style="endArrow=classic;html=1;rounded=0;strokeWidth=4;endFill=1;startArrow=none;startFill=0;endSize=28;targetPerimeterSpacing=0;entryX=0.304;entryY=1.005;entryDx=0;entryDy=0;entryPerimeter=0;" parent="1" target="8pZrykISCQyfhMCrtGH4-9" edge="1">
          <mxGeometry width="50" height="50" relative="1" as="geometry">
            <mxPoint x="1074" y="2518" as="sourcePoint" />
            <mxPoint x="1245" y="2517.5" as="targetPoint" />
          </mxGeometry>
        </mxCell>
        <mxCell id="8pZrykISCQyfhMCrtGH4-62" value="" style="endArrow=classic;html=1;rounded=0;strokeWidth=4;endFill=1;startArrow=none;startFill=0;endSize=28;targetPerimeterSpacing=0;entryX=0.304;entryY=1.005;entryDx=0;entryDy=0;entryPerimeter=0;" parent="1" edge="1">
          <mxGeometry width="50" height="50" relative="1" as="geometry">
            <mxPoint x="1075" y="2285.5" as="sourcePoint" />
            <mxPoint x="1250" y="2284.5" as="targetPoint" />
          </mxGeometry>
        </mxCell>
        <mxCell id="8pZrykISCQyfhMCrtGH4-63" value="" style="endArrow=classic;html=1;rounded=0;strokeWidth=4;endFill=1;startArrow=none;startFill=0;endSize=28;entryX=0.676;entryY=0.998;entryDx=0;entryDy=0;jumpStyle=arc;jumpSize=22;sourcePerimeterSpacing=0;entryPerimeter=0;" parent="1" target="8pZrykISCQyfhMCrtGH4-6" edge="1">
          <mxGeometry width="50" height="50" relative="1" as="geometry">
            <mxPoint x="1845" y="2322" as="sourcePoint" />
            <mxPoint x="1685" y="2458" as="targetPoint" />
            <Array as="points">
              <mxPoint x="1845" y="2440" />
              <mxPoint x="1150" y="2440" />
              <mxPoint x="1150" y="2361" />
            </Array>
          </mxGeometry>
        </mxCell>
        <mxCell id="8pZrykISCQyfhMCrtGH4-64" value="" style="endArrow=classic;html=1;rounded=0;strokeWidth=4;endFill=1;startArrow=none;startFill=0;endSize=28;entryX=0.676;entryY=0.998;entryDx=0;entryDy=0;jumpStyle=arc;jumpSize=22;sourcePerimeterSpacing=0;entryPerimeter=0;" parent="1" edge="1">
          <mxGeometry width="50" height="50" relative="1" as="geometry">
            <mxPoint x="1844" y="2557" as="sourcePoint" />
            <mxPoint x="1249" y="2596" as="targetPoint" />
            <Array as="points">
              <mxPoint x="1844" y="2675" />
              <mxPoint x="1149" y="2675" />
              <mxPoint x="1149" y="2596" />
            </Array>
          </mxGeometry>
        </mxCell>
        <mxCell id="8pZrykISCQyfhMCrtGH4-96" value="&lt;font face=&quot;MS Mincho,ＭＳ 明朝&quot;&gt;update&lt;/font&gt;" style="edgeLabel;html=1;align=center;verticalAlign=middle;resizable=0;points=[];labelBackgroundColor=default;labelBorderColor=default;textShadow=1;fontStyle=1;fontSize=80;" parent="1" vertex="1" connectable="0">
          <mxGeometry x="2854.996582144152" y="2203.9964635985943" as="geometry">
            <mxPoint x="2" y="-93" as="offset" />
          </mxGeometry>
        </mxCell>
        <mxCell id="8pZrykISCQyfhMCrtGH4-251" value="&lt;font face=&quot;MS Mincho, ＭＳ 明朝&quot;&gt;&lt;span style=&quot;font-size: 48px;&quot;&gt;readPtr&lt;/span&gt;&lt;/font&gt;" style="edgeLabel;html=1;align=center;verticalAlign=middle;resizable=0;points=[];labelBackgroundColor=default;" parent="1" vertex="1" connectable="0">
          <mxGeometry x="14.576582144151942" y="1679.9964635985943" as="geometry">
            <mxPoint x="2" y="-93" as="offset" />
          </mxGeometry>
        </mxCell>
        <mxCell id="8pZrykISCQyfhMCrtGH4-252" value="" style="endArrow=none;html=1;rounded=0;strokeWidth=4;exitX=0.71;exitY=0.046;exitDx=0;exitDy=0;exitPerimeter=0;endFill=1;startFill=1;startArrow=classic;" parent="1" edge="1">
          <mxGeometry width="50" height="50" relative="1" as="geometry">
            <mxPoint x="-56.57999999999991" y="1710.2399999999998" as="sourcePoint" />
            <mxPoint x="-18.980000000000004" y="1620" as="targetPoint" />
          </mxGeometry>
        </mxCell>
        <mxCell id="8pZrykISCQyfhMCrtGH4-271" value="" style="endArrow=none;html=1;rounded=0;strokeWidth=4;endFill=1;startFill=1;startArrow=classic;exitX=0.972;exitY=0.663;exitDx=0;exitDy=0;exitPerimeter=0;" parent="1" edge="1">
          <mxGeometry width="50" height="50" relative="1" as="geometry">
            <mxPoint x="53.4199999999998" y="2000" as="sourcePoint" />
            <mxPoint x="145.73999999999998" y="2038.2800000000007" as="targetPoint" />
          </mxGeometry>
        </mxCell>
        <mxCell id="8pZrykISCQyfhMCrtGH4-273" value="&lt;font face=&quot;MS Mincho, ＭＳ 明朝&quot;&gt;&lt;span style=&quot;font-size: 48px;&quot;&gt;writePtr&lt;/span&gt;&lt;/font&gt;" style="edgeLabel;html=1;align=center;verticalAlign=middle;resizable=0;points=[];labelBackgroundColor=default;" parent="1" vertex="1" connectable="0">
          <mxGeometry x="174.57658214415196" y="2159.9964635985943" as="geometry">
            <mxPoint x="2" y="-93" as="offset" />
          </mxGeometry>
        </mxCell>
        <mxCell id="8pZrykISCQyfhMCrtGH4-285" value="" style="verticalLabelPosition=bottom;verticalAlign=top;html=1;shape=mxgraph.basic.partConcEllipse;startAngle=0;endAngle=0.125;arcWidth=0.58;strokeWidth=4;fillColor=#E6E6E6;" parent="1" vertex="1">
          <mxGeometry x="-366.58" y="1691" width="440" height="440" as="geometry" />
        </mxCell>
        <mxCell id="8pZrykISCQyfhMCrtGH4-286" value="" style="verticalLabelPosition=bottom;verticalAlign=top;html=1;shape=mxgraph.basic.partConcEllipse;startAngle=0.125;endAngle=0.250;arcWidth=0.58;strokeWidth=4;fillColor=#E6E6E6;" parent="1" vertex="1">
          <mxGeometry x="-366.58" y="1691" width="440" height="440" as="geometry" />
        </mxCell>
        <mxCell id="8pZrykISCQyfhMCrtGH4-287" value="" style="verticalLabelPosition=bottom;verticalAlign=top;html=1;shape=mxgraph.basic.partConcEllipse;startAngle=0;endAngle=0.125;arcWidth=0.58;strokeWidth=4;direction=south;fillColor=none;" parent="1" vertex="1">
          <mxGeometry x="-366.58" y="1691" width="440" height="440" as="geometry" />
        </mxCell>
        <mxCell id="8pZrykISCQyfhMCrtGH4-288" value="" style="verticalLabelPosition=bottom;verticalAlign=top;html=1;shape=mxgraph.basic.partConcEllipse;startAngle=0.125;endAngle=0.250;arcWidth=0.58;strokeWidth=4;direction=south;fillColor=none;" parent="1" vertex="1">
          <mxGeometry x="-366.58" y="1691" width="440" height="440" as="geometry" />
        </mxCell>
        <mxCell id="8pZrykISCQyfhMCrtGH4-289" value="" style="verticalLabelPosition=bottom;verticalAlign=top;html=1;shape=mxgraph.basic.partConcEllipse;startAngle=0;endAngle=0.125;arcWidth=0.58;strokeWidth=4;flipH=1;fillColor=none;" parent="1" vertex="1">
          <mxGeometry x="-366.58" y="1691" width="440" height="440" as="geometry" />
        </mxCell>
        <mxCell id="8pZrykISCQyfhMCrtGH4-290" value="" style="verticalLabelPosition=bottom;verticalAlign=top;html=1;shape=mxgraph.basic.partConcEllipse;startAngle=0.125;endAngle=0.250;arcWidth=0.58;strokeWidth=4;flipH=1;fillColor=none;" parent="1" vertex="1">
          <mxGeometry x="-366.58" y="1691" width="440" height="440" as="geometry" />
        </mxCell>
        <mxCell id="8pZrykISCQyfhMCrtGH4-291" value="" style="verticalLabelPosition=bottom;verticalAlign=top;html=1;shape=mxgraph.basic.partConcEllipse;startAngle=0;endAngle=0.125;arcWidth=0.58;strokeWidth=4;direction=south;flipH=1;fillColor=none;" parent="1" vertex="1">
          <mxGeometry x="-366.58" y="1691" width="440" height="440" as="geometry" />
        </mxCell>
        <mxCell id="8pZrykISCQyfhMCrtGH4-292" value="" style="verticalLabelPosition=bottom;verticalAlign=top;html=1;shape=mxgraph.basic.partConcEllipse;startAngle=0.125;endAngle=0.250;arcWidth=0.58;strokeWidth=4;direction=south;flipH=1;fillColor=none;" parent="1" vertex="1">
          <mxGeometry x="-366.58" y="1691" width="440" height="440" as="geometry" />
        </mxCell>
        <mxCell id="8pZrykISCQyfhMCrtGH4-293" value="&lt;font face=&quot;MS Mincho, ＭＳ 明朝&quot;&gt;&lt;span style=&quot;font-size: 48px;&quot;&gt;0&lt;/span&gt;&lt;/font&gt;" style="edgeLabel;html=1;align=center;verticalAlign=middle;resizable=0;points=[];labelBackgroundColor=none;" parent="1" vertex="1" connectable="0">
          <mxGeometry x="-86.58341785584808" y="1856.9964635985943" as="geometry">
            <mxPoint x="2" y="-93" as="offset" />
          </mxGeometry>
        </mxCell>
        <mxCell id="8pZrykISCQyfhMCrtGH4-294" value="&lt;font face=&quot;MS Mincho, ＭＳ 明朝&quot;&gt;&lt;span style=&quot;font-size: 48px;&quot;&gt;31&lt;/span&gt;&lt;/font&gt;" style="edgeLabel;html=1;align=center;verticalAlign=middle;resizable=0;points=[];labelBackgroundColor=default;" parent="1" vertex="1" connectable="0">
          <mxGeometry x="-216.583417855848" y="1856.9964635985943" as="geometry">
            <mxPoint x="2" y="-93" as="offset" />
          </mxGeometry>
        </mxCell>
        <mxCell id="8pZrykISCQyfhMCrtGH4-295" value="&lt;font face=&quot;MS Mincho, ＭＳ 明朝&quot;&gt;&lt;span style=&quot;font-size: 48px;&quot;&gt;2&lt;/span&gt;&lt;/font&gt;" style="edgeLabel;html=1;align=center;verticalAlign=middle;resizable=0;points=[];labelBackgroundColor=default;" parent="1" vertex="1" connectable="0">
          <mxGeometry x="3.416582144151919" y="2056.9964635985943" as="geometry">
            <mxPoint x="2" y="-93" as="offset" />
          </mxGeometry>
        </mxCell>
        <mxCell id="8pZrykISCQyfhMCrtGH4-296" value="&lt;font face=&quot;MS Mincho, ＭＳ 明朝&quot;&gt;&lt;span style=&quot;font-size: 48px;&quot;&gt;3&lt;/span&gt;&lt;/font&gt;" style="edgeLabel;html=1;align=center;verticalAlign=middle;resizable=0;points=[];labelBackgroundColor=default;" parent="1" vertex="1" connectable="0">
          <mxGeometry x="-86.58341785584808" y="2136.9964635985943" as="geometry">
            <mxPoint x="2" y="-93" as="offset" />
          </mxGeometry>
        </mxCell>
        <mxCell id="8pZrykISCQyfhMCrtGH4-297" value="&lt;font face=&quot;MS Mincho, ＭＳ 明朝&quot;&gt;&lt;span style=&quot;font-size: 48px;&quot;&gt;4&lt;/span&gt;&lt;/font&gt;" style="edgeLabel;html=1;align=center;verticalAlign=middle;resizable=0;points=[];labelBackgroundColor=default;" parent="1" vertex="1" connectable="0">
          <mxGeometry x="-206.583417855848" y="2136.9964635985943" as="geometry">
            <mxPoint x="2" y="-93" as="offset" />
          </mxGeometry>
        </mxCell>
        <mxCell id="8pZrykISCQyfhMCrtGH4-298" value="&lt;font face=&quot;MS Mincho, ＭＳ 明朝&quot;&gt;&lt;span style=&quot;font-size: 48px;&quot;&gt;5&lt;/span&gt;&lt;/font&gt;" style="edgeLabel;html=1;align=center;verticalAlign=middle;resizable=0;points=[];labelBackgroundColor=default;" parent="1" vertex="1" connectable="0">
          <mxGeometry x="-306.58341785584804" y="2056.9964635985943" as="geometry">
            <mxPoint x="2" y="-93" as="offset" />
          </mxGeometry>
        </mxCell>
        <mxCell id="8pZrykISCQyfhMCrtGH4-299" value="&lt;font face=&quot;MS Mincho, ＭＳ 明朝&quot;&gt;&lt;span style=&quot;font-size: 48px;&quot;&gt;1&lt;/span&gt;&lt;/font&gt;" style="edgeLabel;html=1;align=center;verticalAlign=middle;resizable=0;points=[];labelBackgroundColor=none;" parent="1" vertex="1" connectable="0">
          <mxGeometry x="-16.583417855848083" y="1926.9964635985943" as="geometry">
            <mxPoint x="2" y="-93" as="offset" />
          </mxGeometry>
        </mxCell>
        <mxCell id="8pZrykISCQyfhMCrtGH4-300" value="" style="shape=waypoint;sketch=0;fillStyle=solid;size=6;pointerEvents=1;points=[];fillColor=none;resizable=0;rotatable=0;perimeter=centerPerimeter;snapToPoint=1;strokeWidth=3;" parent="1" vertex="1">
          <mxGeometry x="-318.58" y="1890" width="20" height="20" as="geometry" />
        </mxCell>
        <mxCell id="8pZrykISCQyfhMCrtGH4-301" value="" style="shape=waypoint;sketch=0;fillStyle=solid;size=6;pointerEvents=1;points=[];fillColor=none;resizable=0;rotatable=0;perimeter=centerPerimeter;snapToPoint=1;strokeWidth=3;" parent="1" vertex="1">
          <mxGeometry x="-317.58" y="1869" width="20" height="20" as="geometry" />
        </mxCell>
        <mxCell id="8pZrykISCQyfhMCrtGH4-302" value="" style="shape=waypoint;sketch=0;fillStyle=solid;size=6;pointerEvents=1;points=[];fillColor=none;resizable=0;rotatable=0;perimeter=centerPerimeter;snapToPoint=1;strokeWidth=3;" parent="1" vertex="1">
          <mxGeometry x="-311.58" y="1848" width="20" height="20" as="geometry" />
        </mxCell>
        <mxCell id="8pZrykISCQyfhMCrtGH4-303" value="" style="shape=waypoint;sketch=0;fillStyle=solid;size=6;pointerEvents=1;points=[];fillColor=none;resizable=0;rotatable=0;perimeter=centerPerimeter;snapToPoint=1;strokeWidth=3;" parent="1" vertex="1">
          <mxGeometry x="-302.58" y="1828" width="20" height="20" as="geometry" />
        </mxCell>
        <mxCell id="8pZrykISCQyfhMCrtGH4-304" value="" style="shape=waypoint;sketch=0;fillStyle=solid;size=6;pointerEvents=1;points=[];fillColor=none;resizable=0;rotatable=0;perimeter=centerPerimeter;snapToPoint=1;strokeWidth=3;" parent="1" vertex="1">
          <mxGeometry x="-290.58" y="1808" width="20" height="20" as="geometry" />
        </mxCell>
        <mxCell id="8pZrykISCQyfhMCrtGH4-305" value="" style="shape=waypoint;sketch=0;fillStyle=solid;size=6;pointerEvents=1;points=[];fillColor=none;resizable=0;rotatable=0;perimeter=centerPerimeter;snapToPoint=1;strokeWidth=3;" parent="1" vertex="1">
          <mxGeometry x="-279.58" y="1791" width="20" height="20" as="geometry" />
        </mxCell>
        <mxCell id="8pZrykISCQyfhMCrtGH4-306" value="&lt;font face=&quot;MS Mincho, ＭＳ 明朝&quot;&gt;&lt;span style=&quot;font-size: 48px;&quot;&gt;readPtr&lt;/span&gt;&lt;/font&gt;" style="edgeLabel;html=1;align=center;verticalAlign=middle;resizable=0;points=[];labelBackgroundColor=default;fontColor=#000000;" parent="1" vertex="1" connectable="0">
          <mxGeometry x="-735.4234178558482" y="1669.9964635985943" as="geometry">
            <mxPoint x="2" y="-93" as="offset" />
          </mxGeometry>
        </mxCell>
        <mxCell id="8pZrykISCQyfhMCrtGH4-310" value="" style="verticalLabelPosition=bottom;verticalAlign=top;html=1;shape=mxgraph.basic.partConcEllipse;startAngle=0;endAngle=0.125;arcWidth=0.58;strokeWidth=4;fillColor=#E6E6E6;" parent="1" vertex="1">
          <mxGeometry x="-1075.42" y="1691" width="440" height="440" as="geometry" />
        </mxCell>
        <mxCell id="8pZrykISCQyfhMCrtGH4-311" value="" style="verticalLabelPosition=bottom;verticalAlign=top;html=1;shape=mxgraph.basic.partConcEllipse;startAngle=0.125;endAngle=0.250;arcWidth=0.58;strokeWidth=4;fillColor=none;" parent="1" vertex="1">
          <mxGeometry x="-1075.42" y="1691" width="440" height="440" as="geometry" />
        </mxCell>
        <mxCell id="8pZrykISCQyfhMCrtGH4-312" value="" style="verticalLabelPosition=bottom;verticalAlign=top;html=1;shape=mxgraph.basic.partConcEllipse;startAngle=0;endAngle=0.125;arcWidth=0.58;strokeWidth=4;direction=south;fillColor=none;" parent="1" vertex="1">
          <mxGeometry x="-1075.42" y="1691" width="440" height="440" as="geometry" />
        </mxCell>
        <mxCell id="8pZrykISCQyfhMCrtGH4-313" value="" style="verticalLabelPosition=bottom;verticalAlign=top;html=1;shape=mxgraph.basic.partConcEllipse;startAngle=0.125;endAngle=0.250;arcWidth=0.58;strokeWidth=4;direction=south;fillColor=none;" parent="1" vertex="1">
          <mxGeometry x="-1075.42" y="1691" width="440" height="440" as="geometry" />
        </mxCell>
        <mxCell id="8pZrykISCQyfhMCrtGH4-314" value="" style="verticalLabelPosition=bottom;verticalAlign=top;html=1;shape=mxgraph.basic.partConcEllipse;startAngle=0;endAngle=0.125;arcWidth=0.58;strokeWidth=4;flipH=1;fillColor=none;" parent="1" vertex="1">
          <mxGeometry x="-1075.42" y="1691" width="440" height="440" as="geometry" />
        </mxCell>
        <mxCell id="8pZrykISCQyfhMCrtGH4-315" value="" style="verticalLabelPosition=bottom;verticalAlign=top;html=1;shape=mxgraph.basic.partConcEllipse;startAngle=0.125;endAngle=0.250;arcWidth=0.58;strokeWidth=4;flipH=1;fillColor=none;" parent="1" vertex="1">
          <mxGeometry x="-1075.42" y="1691" width="440" height="440" as="geometry" />
        </mxCell>
        <mxCell id="8pZrykISCQyfhMCrtGH4-316" value="" style="verticalLabelPosition=bottom;verticalAlign=top;html=1;shape=mxgraph.basic.partConcEllipse;startAngle=0;endAngle=0.125;arcWidth=0.58;strokeWidth=4;direction=south;flipH=1;fillColor=none;" parent="1" vertex="1">
          <mxGeometry x="-1075.42" y="1691" width="440" height="440" as="geometry" />
        </mxCell>
        <mxCell id="8pZrykISCQyfhMCrtGH4-317" value="" style="verticalLabelPosition=bottom;verticalAlign=top;html=1;shape=mxgraph.basic.partConcEllipse;startAngle=0.125;endAngle=0.250;arcWidth=0.58;strokeWidth=4;direction=south;flipH=1;fillColor=none;" parent="1" vertex="1">
          <mxGeometry x="-1075.42" y="1691" width="440" height="440" as="geometry" />
        </mxCell>
        <mxCell id="8pZrykISCQyfhMCrtGH4-318" value="&lt;font face=&quot;MS Mincho, ＭＳ 明朝&quot;&gt;&lt;span style=&quot;font-size: 48px;&quot;&gt;0&lt;/span&gt;&lt;/font&gt;" style="edgeLabel;html=1;align=center;verticalAlign=middle;resizable=0;points=[];labelBackgroundColor=none;" parent="1" vertex="1" connectable="0">
          <mxGeometry x="-795.423417855848" y="1856.9964635985943" as="geometry">
            <mxPoint x="2" y="-93" as="offset" />
          </mxGeometry>
        </mxCell>
        <mxCell id="8pZrykISCQyfhMCrtGH4-319" value="&lt;font face=&quot;MS Mincho, ＭＳ 明朝&quot;&gt;&lt;span style=&quot;font-size: 48px;&quot;&gt;31&lt;/span&gt;&lt;/font&gt;" style="edgeLabel;html=1;align=center;verticalAlign=middle;resizable=0;points=[];labelBackgroundColor=default;" parent="1" vertex="1" connectable="0">
          <mxGeometry x="-925.423417855848" y="1856.9964635985943" as="geometry">
            <mxPoint x="2" y="-93" as="offset" />
          </mxGeometry>
        </mxCell>
        <mxCell id="8pZrykISCQyfhMCrtGH4-320" value="&lt;font face=&quot;MS Mincho, ＭＳ 明朝&quot;&gt;&lt;span style=&quot;font-size: 48px;&quot;&gt;2&lt;/span&gt;&lt;/font&gt;" style="edgeLabel;html=1;align=center;verticalAlign=middle;resizable=0;points=[];labelBackgroundColor=default;" parent="1" vertex="1" connectable="0">
          <mxGeometry x="-705.423417855848" y="2056.9964635985943" as="geometry">
            <mxPoint x="2" y="-93" as="offset" />
          </mxGeometry>
        </mxCell>
        <mxCell id="8pZrykISCQyfhMCrtGH4-321" value="&lt;font face=&quot;MS Mincho, ＭＳ 明朝&quot;&gt;&lt;span style=&quot;font-size: 48px;&quot;&gt;3&lt;/span&gt;&lt;/font&gt;" style="edgeLabel;html=1;align=center;verticalAlign=middle;resizable=0;points=[];labelBackgroundColor=default;" parent="1" vertex="1" connectable="0">
          <mxGeometry x="-795.423417855848" y="2136.9964635985943" as="geometry">
            <mxPoint x="2" y="-93" as="offset" />
          </mxGeometry>
        </mxCell>
        <mxCell id="8pZrykISCQyfhMCrtGH4-322" value="&lt;font face=&quot;MS Mincho, ＭＳ 明朝&quot;&gt;&lt;span style=&quot;font-size: 48px;&quot;&gt;4&lt;/span&gt;&lt;/font&gt;" style="edgeLabel;html=1;align=center;verticalAlign=middle;resizable=0;points=[];labelBackgroundColor=default;" parent="1" vertex="1" connectable="0">
          <mxGeometry x="-915.423417855848" y="2136.9964635985943" as="geometry">
            <mxPoint x="2" y="-93" as="offset" />
          </mxGeometry>
        </mxCell>
        <mxCell id="8pZrykISCQyfhMCrtGH4-323" value="&lt;font face=&quot;MS Mincho, ＭＳ 明朝&quot;&gt;&lt;span style=&quot;font-size: 48px;&quot;&gt;5&lt;/span&gt;&lt;/font&gt;" style="edgeLabel;html=1;align=center;verticalAlign=middle;resizable=0;points=[];labelBackgroundColor=default;" parent="1" vertex="1" connectable="0">
          <mxGeometry x="-1015.423417855848" y="2056.9964635985943" as="geometry">
            <mxPoint x="2" y="-93" as="offset" />
          </mxGeometry>
        </mxCell>
        <mxCell id="8pZrykISCQyfhMCrtGH4-324" value="&lt;font face=&quot;MS Mincho, ＭＳ 明朝&quot;&gt;&lt;span style=&quot;font-size: 48px;&quot;&gt;1&lt;/span&gt;&lt;/font&gt;" style="edgeLabel;html=1;align=center;verticalAlign=middle;resizable=0;points=[];labelBackgroundColor=none;" parent="1" vertex="1" connectable="0">
          <mxGeometry x="-725.423417855848" y="1926.9964635985943" as="geometry">
            <mxPoint x="2" y="-93" as="offset" />
          </mxGeometry>
        </mxCell>
        <mxCell id="8pZrykISCQyfhMCrtGH4-325" value="" style="shape=waypoint;sketch=0;fillStyle=solid;size=6;pointerEvents=1;points=[];fillColor=none;resizable=0;rotatable=0;perimeter=centerPerimeter;snapToPoint=1;strokeWidth=3;" parent="1" vertex="1">
          <mxGeometry x="-1027.42" y="1890" width="20" height="20" as="geometry" />
        </mxCell>
        <mxCell id="8pZrykISCQyfhMCrtGH4-326" value="" style="shape=waypoint;sketch=0;fillStyle=solid;size=6;pointerEvents=1;points=[];fillColor=none;resizable=0;rotatable=0;perimeter=centerPerimeter;snapToPoint=1;strokeWidth=3;" parent="1" vertex="1">
          <mxGeometry x="-1026.42" y="1869" width="20" height="20" as="geometry" />
        </mxCell>
        <mxCell id="8pZrykISCQyfhMCrtGH4-327" value="" style="shape=waypoint;sketch=0;fillStyle=solid;size=6;pointerEvents=1;points=[];fillColor=none;resizable=0;rotatable=0;perimeter=centerPerimeter;snapToPoint=1;strokeWidth=3;" parent="1" vertex="1">
          <mxGeometry x="-1020.42" y="1848" width="20" height="20" as="geometry" />
        </mxCell>
        <mxCell id="8pZrykISCQyfhMCrtGH4-328" value="" style="shape=waypoint;sketch=0;fillStyle=solid;size=6;pointerEvents=1;points=[];fillColor=none;resizable=0;rotatable=0;perimeter=centerPerimeter;snapToPoint=1;strokeWidth=3;" parent="1" vertex="1">
          <mxGeometry x="-1011.42" y="1828" width="20" height="20" as="geometry" />
        </mxCell>
        <mxCell id="8pZrykISCQyfhMCrtGH4-329" value="" style="shape=waypoint;sketch=0;fillStyle=solid;size=6;pointerEvents=1;points=[];fillColor=none;resizable=0;rotatable=0;perimeter=centerPerimeter;snapToPoint=1;strokeWidth=3;" parent="1" vertex="1">
          <mxGeometry x="-999.42" y="1808" width="20" height="20" as="geometry" />
        </mxCell>
        <mxCell id="8pZrykISCQyfhMCrtGH4-330" value="" style="shape=waypoint;sketch=0;fillStyle=solid;size=6;pointerEvents=1;points=[];fillColor=none;resizable=0;rotatable=0;perimeter=centerPerimeter;snapToPoint=1;strokeWidth=3;" parent="1" vertex="1">
          <mxGeometry x="-988.42" y="1791" width="20" height="20" as="geometry" />
        </mxCell>
        <mxCell id="8pZrykISCQyfhMCrtGH4-333" value="" style="endArrow=none;html=1;rounded=0;strokeWidth=4;exitX=0.71;exitY=0.046;exitDx=0;exitDy=0;exitPerimeter=0;endFill=1;startFill=1;startArrow=classic;" parent="1" edge="1">
          <mxGeometry width="50" height="50" relative="1" as="geometry">
            <mxPoint x="-785.42" y="1700.2399999999998" as="sourcePoint" />
            <mxPoint x="-747.82" y="1610" as="targetPoint" />
          </mxGeometry>
        </mxCell>
        <mxCell id="8pZrykISCQyfhMCrtGH4-334" value="" style="endArrow=none;html=1;rounded=0;strokeWidth=4;exitX=0.98;exitY=0.349;exitDx=0;exitDy=0;exitPerimeter=0;endFill=1;startFill=1;startArrow=classic;" parent="1" source="8pZrykISCQyfhMCrtGH4-311" edge="1">
          <mxGeometry width="50" height="50" relative="1" as="geometry">
            <mxPoint x="-605.42" y="1889" as="sourcePoint" />
            <mxPoint x="-515.42" y="1790" as="targetPoint" />
          </mxGeometry>
        </mxCell>
        <mxCell id="8pZrykISCQyfhMCrtGH4-309" value="&lt;font face=&quot;MS Mincho, ＭＳ 明朝&quot;&gt;&lt;span style=&quot;font-size: 48px;&quot;&gt;writePtr&lt;/span&gt;&lt;/font&gt;" style="edgeLabel;html=1;align=center;verticalAlign=middle;resizable=0;points=[];labelBackgroundColor=default;" parent="1" vertex="1" connectable="0">
          <mxGeometry x="-505.4234178558481" y="1878.9964635985943" as="geometry">
            <mxPoint x="2" y="-93" as="offset" />
          </mxGeometry>
        </mxCell>
        <mxCell id="8pZrykISCQyfhMCrtGH4-332" value="" style="endArrow=block;html=1;rounded=0;strokeWidth=4;endFill=0;startArrow=none;startFill=0;endSize=28;targetPerimeterSpacing=0;" parent="1" edge="1">
          <mxGeometry width="50" height="50" relative="1" as="geometry">
            <mxPoint x="-555.42" y="1648" as="sourcePoint" />
            <mxPoint x="-705.42" y="1828" as="targetPoint" />
          </mxGeometry>
        </mxCell>
        <mxCell id="8pZrykISCQyfhMCrtGH4-331" value="&lt;font face=&quot;MS Mincho,ＭＳ 明朝&quot; style=&quot;font-size: 48px;&quot;&gt;enqueue&lt;/font&gt;" style="edgeLabel;html=1;align=center;verticalAlign=middle;resizable=0;points=[];labelBackgroundColor=default;" parent="1" vertex="1" connectable="0">
          <mxGeometry x="-605.4234178558478" y="1788.9964635985943" as="geometry">
            <mxPoint x="2" y="-93" as="offset" />
          </mxGeometry>
        </mxCell>
        <mxCell id="8pZrykISCQyfhMCrtGH4-549" value="" style="endArrow=none;html=1;rounded=0;strokeWidth=4;exitX=0.794;exitY=0.097;exitDx=0;exitDy=0;exitPerimeter=0;endFill=1;startFill=1;startArrow=classic;" parent="1" source="8pZrykISCQyfhMCrtGH4-552" edge="1">
          <mxGeometry width="50" height="50" relative="1" as="geometry">
            <mxPoint x="-765.42" y="2510.24" as="sourcePoint" />
            <mxPoint x="-625.42" y="2430" as="targetPoint" />
          </mxGeometry>
        </mxCell>
        <mxCell id="8pZrykISCQyfhMCrtGH4-552" value="" style="verticalLabelPosition=bottom;verticalAlign=top;html=1;shape=mxgraph.basic.partConcEllipse;startAngle=0;endAngle=0.125;arcWidth=0.58;strokeWidth=4;fillColor=none;" parent="1" vertex="1">
          <mxGeometry x="-1075.42" y="2491" width="440" height="440" as="geometry" />
        </mxCell>
        <mxCell id="8pZrykISCQyfhMCrtGH4-553" value="" style="verticalLabelPosition=bottom;verticalAlign=top;html=1;shape=mxgraph.basic.partConcEllipse;startAngle=0.125;endAngle=0.250;arcWidth=0.58;strokeWidth=4;fillColor=none;" parent="1" vertex="1">
          <mxGeometry x="-1075.42" y="2491" width="440" height="440" as="geometry" />
        </mxCell>
        <mxCell id="8pZrykISCQyfhMCrtGH4-554" value="" style="verticalLabelPosition=bottom;verticalAlign=top;html=1;shape=mxgraph.basic.partConcEllipse;startAngle=0;endAngle=0.125;arcWidth=0.58;strokeWidth=4;direction=south;fillColor=none;" parent="1" vertex="1">
          <mxGeometry x="-1075.42" y="2491" width="440" height="440" as="geometry" />
        </mxCell>
        <mxCell id="8pZrykISCQyfhMCrtGH4-555" value="" style="verticalLabelPosition=bottom;verticalAlign=top;html=1;shape=mxgraph.basic.partConcEllipse;startAngle=0.125;endAngle=0.250;arcWidth=0.58;strokeWidth=4;direction=south;fillColor=none;" parent="1" vertex="1">
          <mxGeometry x="-1075.42" y="2491" width="440" height="440" as="geometry" />
        </mxCell>
        <mxCell id="8pZrykISCQyfhMCrtGH4-556" value="" style="verticalLabelPosition=bottom;verticalAlign=top;html=1;shape=mxgraph.basic.partConcEllipse;startAngle=0;endAngle=0.125;arcWidth=0.58;strokeWidth=4;flipH=1;fillColor=none;" parent="1" vertex="1">
          <mxGeometry x="-1075.42" y="2491" width="440" height="440" as="geometry" />
        </mxCell>
        <mxCell id="8pZrykISCQyfhMCrtGH4-557" value="" style="verticalLabelPosition=bottom;verticalAlign=top;html=1;shape=mxgraph.basic.partConcEllipse;startAngle=0.125;endAngle=0.250;arcWidth=0.58;strokeWidth=4;flipH=1;fillColor=none;" parent="1" vertex="1">
          <mxGeometry x="-1075.42" y="2491" width="440" height="440" as="geometry" />
        </mxCell>
        <mxCell id="8pZrykISCQyfhMCrtGH4-558" value="" style="verticalLabelPosition=bottom;verticalAlign=top;html=1;shape=mxgraph.basic.partConcEllipse;startAngle=0;endAngle=0.125;arcWidth=0.58;strokeWidth=4;direction=south;flipH=1;fillColor=none;" parent="1" vertex="1">
          <mxGeometry x="-1075.42" y="2491" width="440" height="440" as="geometry" />
        </mxCell>
        <mxCell id="8pZrykISCQyfhMCrtGH4-559" value="" style="verticalLabelPosition=bottom;verticalAlign=top;html=1;shape=mxgraph.basic.partConcEllipse;startAngle=0.125;endAngle=0.250;arcWidth=0.58;strokeWidth=4;direction=south;flipH=1;fillColor=none;" parent="1" vertex="1">
          <mxGeometry x="-1075.42" y="2491" width="440" height="440" as="geometry" />
        </mxCell>
        <mxCell id="8pZrykISCQyfhMCrtGH4-560" value="&lt;font face=&quot;MS Mincho, ＭＳ 明朝&quot;&gt;&lt;span style=&quot;font-size: 48px;&quot;&gt;0&lt;/span&gt;&lt;/font&gt;" style="edgeLabel;html=1;align=center;verticalAlign=middle;resizable=0;points=[];labelBackgroundColor=none;" parent="1" vertex="1" connectable="0">
          <mxGeometry x="-795.423417855848" y="2656.9964635985943" as="geometry">
            <mxPoint x="2" y="-93" as="offset" />
          </mxGeometry>
        </mxCell>
        <mxCell id="8pZrykISCQyfhMCrtGH4-561" value="&lt;font face=&quot;MS Mincho, ＭＳ 明朝&quot;&gt;&lt;span style=&quot;font-size: 48px;&quot;&gt;31&lt;/span&gt;&lt;/font&gt;" style="edgeLabel;html=1;align=center;verticalAlign=middle;resizable=0;points=[];labelBackgroundColor=default;" parent="1" vertex="1" connectable="0">
          <mxGeometry x="-925.423417855848" y="2656.9964635985943" as="geometry">
            <mxPoint x="2" y="-93" as="offset" />
          </mxGeometry>
        </mxCell>
        <mxCell id="8pZrykISCQyfhMCrtGH4-562" value="&lt;font face=&quot;MS Mincho, ＭＳ 明朝&quot;&gt;&lt;span style=&quot;font-size: 48px;&quot;&gt;2&lt;/span&gt;&lt;/font&gt;" style="edgeLabel;html=1;align=center;verticalAlign=middle;resizable=0;points=[];labelBackgroundColor=default;" parent="1" vertex="1" connectable="0">
          <mxGeometry x="-705.423417855848" y="2856.9964635985943" as="geometry">
            <mxPoint x="2" y="-93" as="offset" />
          </mxGeometry>
        </mxCell>
        <mxCell id="8pZrykISCQyfhMCrtGH4-563" value="&lt;font face=&quot;MS Mincho, ＭＳ 明朝&quot;&gt;&lt;span style=&quot;font-size: 48px;&quot;&gt;3&lt;/span&gt;&lt;/font&gt;" style="edgeLabel;html=1;align=center;verticalAlign=middle;resizable=0;points=[];labelBackgroundColor=default;" parent="1" vertex="1" connectable="0">
          <mxGeometry x="-796.003417855848" y="2945.4964635985943" as="geometry">
            <mxPoint x="2" y="-93" as="offset" />
          </mxGeometry>
        </mxCell>
        <mxCell id="8pZrykISCQyfhMCrtGH4-564" value="&lt;font face=&quot;MS Mincho, ＭＳ 明朝&quot;&gt;&lt;span style=&quot;font-size: 48px;&quot;&gt;4&lt;/span&gt;&lt;/font&gt;" style="edgeLabel;html=1;align=center;verticalAlign=middle;resizable=0;points=[];labelBackgroundColor=default;" parent="1" vertex="1" connectable="0">
          <mxGeometry x="-916.003417855848" y="2945.4964635985943" as="geometry">
            <mxPoint x="2" y="-93" as="offset" />
          </mxGeometry>
        </mxCell>
        <mxCell id="8pZrykISCQyfhMCrtGH4-565" value="&lt;font face=&quot;MS Mincho, ＭＳ 明朝&quot;&gt;&lt;span style=&quot;font-size: 48px;&quot;&gt;5&lt;/span&gt;&lt;/font&gt;" style="edgeLabel;html=1;align=center;verticalAlign=middle;resizable=0;points=[];labelBackgroundColor=default;" parent="1" vertex="1" connectable="0">
          <mxGeometry x="-1015.423417855848" y="2856.9964635985943" as="geometry">
            <mxPoint x="2" y="-93" as="offset" />
          </mxGeometry>
        </mxCell>
        <mxCell id="8pZrykISCQyfhMCrtGH4-566" value="&lt;font face=&quot;MS Mincho, ＭＳ 明朝&quot;&gt;&lt;span style=&quot;font-size: 48px;&quot;&gt;1&lt;/span&gt;&lt;/font&gt;" style="edgeLabel;html=1;align=center;verticalAlign=middle;resizable=0;points=[];labelBackgroundColor=none;" parent="1" vertex="1" connectable="0">
          <mxGeometry x="-725.423417855848" y="2726.9964635985943" as="geometry">
            <mxPoint x="2" y="-93" as="offset" />
          </mxGeometry>
        </mxCell>
        <mxCell id="8pZrykISCQyfhMCrtGH4-567" value="" style="shape=waypoint;sketch=0;fillStyle=solid;size=6;pointerEvents=1;points=[];fillColor=none;resizable=0;rotatable=0;perimeter=centerPerimeter;snapToPoint=1;strokeWidth=3;" parent="1" vertex="1">
          <mxGeometry x="-1027.42" y="2690" width="20" height="20" as="geometry" />
        </mxCell>
        <mxCell id="8pZrykISCQyfhMCrtGH4-568" value="" style="shape=waypoint;sketch=0;fillStyle=solid;size=6;pointerEvents=1;points=[];fillColor=none;resizable=0;rotatable=0;perimeter=centerPerimeter;snapToPoint=1;strokeWidth=3;" parent="1" vertex="1">
          <mxGeometry x="-1026.42" y="2669" width="20" height="20" as="geometry" />
        </mxCell>
        <mxCell id="8pZrykISCQyfhMCrtGH4-569" value="" style="shape=waypoint;sketch=0;fillStyle=solid;size=6;pointerEvents=1;points=[];fillColor=none;resizable=0;rotatable=0;perimeter=centerPerimeter;snapToPoint=1;strokeWidth=3;" parent="1" vertex="1">
          <mxGeometry x="-1020.42" y="2648" width="20" height="20" as="geometry" />
        </mxCell>
        <mxCell id="8pZrykISCQyfhMCrtGH4-570" value="" style="shape=waypoint;sketch=0;fillStyle=solid;size=6;pointerEvents=1;points=[];fillColor=none;resizable=0;rotatable=0;perimeter=centerPerimeter;snapToPoint=1;strokeWidth=3;" parent="1" vertex="1">
          <mxGeometry x="-1011.42" y="2628" width="20" height="20" as="geometry" />
        </mxCell>
        <mxCell id="8pZrykISCQyfhMCrtGH4-571" value="" style="shape=waypoint;sketch=0;fillStyle=solid;size=6;pointerEvents=1;points=[];fillColor=none;resizable=0;rotatable=0;perimeter=centerPerimeter;snapToPoint=1;strokeWidth=3;" parent="1" vertex="1">
          <mxGeometry x="-999.42" y="2608" width="20" height="20" as="geometry" />
        </mxCell>
        <mxCell id="8pZrykISCQyfhMCrtGH4-572" value="" style="shape=waypoint;sketch=0;fillStyle=solid;size=6;pointerEvents=1;points=[];fillColor=none;resizable=0;rotatable=0;perimeter=centerPerimeter;snapToPoint=1;strokeWidth=3;" parent="1" vertex="1">
          <mxGeometry x="-988.42" y="2591" width="20" height="20" as="geometry" />
        </mxCell>
        <mxCell id="8pZrykISCQyfhMCrtGH4-573" value="" style="endArrow=none;html=1;rounded=0;strokeWidth=4;exitX=0.94;exitY=0.258;exitDx=0;exitDy=0;exitPerimeter=0;endFill=1;startFill=1;startArrow=classic;" parent="1" edge="1">
          <mxGeometry width="50" height="50" relative="1" as="geometry">
            <mxPoint x="44.580000000000226" y="2611" as="sourcePoint" />
            <mxPoint x="219.82000000000002" y="2468.4799999999996" as="targetPoint" />
          </mxGeometry>
        </mxCell>
        <mxCell id="8pZrykISCQyfhMCrtGH4-576" value="" style="verticalLabelPosition=bottom;verticalAlign=top;html=1;shape=mxgraph.basic.partConcEllipse;startAngle=0;endAngle=0.125;arcWidth=0.58;strokeWidth=4;fillColor=none;" parent="1" vertex="1">
          <mxGeometry x="-374.26000000000005" y="2489" width="440" height="440" as="geometry" />
        </mxCell>
        <mxCell id="8pZrykISCQyfhMCrtGH4-577" value="" style="verticalLabelPosition=bottom;verticalAlign=top;html=1;shape=mxgraph.basic.partConcEllipse;startAngle=0.125;endAngle=0.250;arcWidth=0.58;strokeWidth=4;fillColor=none;" parent="1" vertex="1">
          <mxGeometry x="-374.26000000000005" y="2489" width="440" height="440" as="geometry" />
        </mxCell>
        <mxCell id="8pZrykISCQyfhMCrtGH4-578" value="" style="verticalLabelPosition=bottom;verticalAlign=top;html=1;shape=mxgraph.basic.partConcEllipse;startAngle=0;endAngle=0.125;arcWidth=0.58;strokeWidth=4;direction=south;fillColor=none;" parent="1" vertex="1">
          <mxGeometry x="-374.26000000000005" y="2489" width="440" height="440" as="geometry" />
        </mxCell>
        <mxCell id="8pZrykISCQyfhMCrtGH4-579" value="" style="verticalLabelPosition=bottom;verticalAlign=top;html=1;shape=mxgraph.basic.partConcEllipse;startAngle=0.125;endAngle=0.250;arcWidth=0.58;strokeWidth=4;direction=south;fillColor=none;" parent="1" vertex="1">
          <mxGeometry x="-374.26000000000005" y="2489" width="440" height="440" as="geometry" />
        </mxCell>
        <mxCell id="8pZrykISCQyfhMCrtGH4-580" value="" style="verticalLabelPosition=bottom;verticalAlign=top;html=1;shape=mxgraph.basic.partConcEllipse;startAngle=0;endAngle=0.125;arcWidth=0.58;strokeWidth=4;flipH=1;fillColor=none;" parent="1" vertex="1">
          <mxGeometry x="-374.26000000000005" y="2489" width="440" height="440" as="geometry" />
        </mxCell>
        <mxCell id="8pZrykISCQyfhMCrtGH4-581" value="" style="verticalLabelPosition=bottom;verticalAlign=top;html=1;shape=mxgraph.basic.partConcEllipse;startAngle=0.125;endAngle=0.250;arcWidth=0.58;strokeWidth=4;flipH=1;fillColor=none;" parent="1" vertex="1">
          <mxGeometry x="-374.26000000000005" y="2489" width="440" height="440" as="geometry" />
        </mxCell>
        <mxCell id="8pZrykISCQyfhMCrtGH4-582" value="" style="verticalLabelPosition=bottom;verticalAlign=top;html=1;shape=mxgraph.basic.partConcEllipse;startAngle=0;endAngle=0.125;arcWidth=0.58;strokeWidth=4;direction=south;flipH=1;fillColor=none;" parent="1" vertex="1">
          <mxGeometry x="-374.26000000000005" y="2489" width="440" height="440" as="geometry" />
        </mxCell>
        <mxCell id="8pZrykISCQyfhMCrtGH4-583" value="" style="verticalLabelPosition=bottom;verticalAlign=top;html=1;shape=mxgraph.basic.partConcEllipse;startAngle=0.125;endAngle=0.250;arcWidth=0.58;strokeWidth=4;direction=south;flipH=1;fillColor=none;" parent="1" vertex="1">
          <mxGeometry x="-374.26000000000005" y="2489" width="440" height="440" as="geometry" />
        </mxCell>
        <mxCell id="8pZrykISCQyfhMCrtGH4-584" value="&lt;font face=&quot;MS Mincho, ＭＳ 明朝&quot;&gt;&lt;span style=&quot;font-size: 48px;&quot;&gt;0&lt;/span&gt;&lt;/font&gt;" style="edgeLabel;html=1;align=center;verticalAlign=middle;resizable=0;points=[];labelBackgroundColor=none;" parent="1" vertex="1" connectable="0">
          <mxGeometry x="-94.26341785584809" y="2654.9964635985943" as="geometry">
            <mxPoint x="2" y="-93" as="offset" />
          </mxGeometry>
        </mxCell>
        <mxCell id="8pZrykISCQyfhMCrtGH4-585" value="&lt;font face=&quot;MS Mincho, ＭＳ 明朝&quot;&gt;&lt;span style=&quot;font-size: 48px;&quot;&gt;31&lt;/span&gt;&lt;/font&gt;" style="edgeLabel;html=1;align=center;verticalAlign=middle;resizable=0;points=[];labelBackgroundColor=default;" parent="1" vertex="1" connectable="0">
          <mxGeometry x="-224.26341785584808" y="2654.9964635985943" as="geometry">
            <mxPoint x="2" y="-93" as="offset" />
          </mxGeometry>
        </mxCell>
        <mxCell id="8pZrykISCQyfhMCrtGH4-586" value="&lt;font face=&quot;MS Mincho, ＭＳ 明朝&quot;&gt;&lt;span style=&quot;font-size: 48px;&quot;&gt;2&lt;/span&gt;&lt;/font&gt;" style="edgeLabel;html=1;align=center;verticalAlign=middle;resizable=0;points=[];labelBackgroundColor=default;" parent="1" vertex="1" connectable="0">
          <mxGeometry x="-4.263417855848145" y="2854.9964635985943" as="geometry">
            <mxPoint x="2" y="-93" as="offset" />
          </mxGeometry>
        </mxCell>
        <mxCell id="8pZrykISCQyfhMCrtGH4-587" value="&lt;font face=&quot;MS Mincho, ＭＳ 明朝&quot;&gt;&lt;span style=&quot;font-size: 48px;&quot;&gt;3&lt;/span&gt;&lt;/font&gt;" style="edgeLabel;html=1;align=center;verticalAlign=middle;resizable=0;points=[];labelBackgroundColor=default;" parent="1" vertex="1" connectable="0">
          <mxGeometry x="-94.84341785584809" y="2943.4964635985943" as="geometry">
            <mxPoint x="2" y="-93" as="offset" />
          </mxGeometry>
        </mxCell>
        <mxCell id="8pZrykISCQyfhMCrtGH4-588" value="&lt;font face=&quot;MS Mincho, ＭＳ 明朝&quot;&gt;&lt;span style=&quot;font-size: 48px;&quot;&gt;4&lt;/span&gt;&lt;/font&gt;" style="edgeLabel;html=1;align=center;verticalAlign=middle;resizable=0;points=[];labelBackgroundColor=default;" parent="1" vertex="1" connectable="0">
          <mxGeometry x="-214.84341785584806" y="2943.4964635985943" as="geometry">
            <mxPoint x="2" y="-93" as="offset" />
          </mxGeometry>
        </mxCell>
        <mxCell id="8pZrykISCQyfhMCrtGH4-589" value="&lt;font face=&quot;MS Mincho, ＭＳ 明朝&quot;&gt;&lt;span style=&quot;font-size: 48px;&quot;&gt;5&lt;/span&gt;&lt;/font&gt;" style="edgeLabel;html=1;align=center;verticalAlign=middle;resizable=0;points=[];labelBackgroundColor=default;" parent="1" vertex="1" connectable="0">
          <mxGeometry x="-314.2634178558481" y="2854.9964635985943" as="geometry">
            <mxPoint x="2" y="-93" as="offset" />
          </mxGeometry>
        </mxCell>
        <mxCell id="8pZrykISCQyfhMCrtGH4-590" value="&lt;font face=&quot;MS Mincho, ＭＳ 明朝&quot;&gt;&lt;span style=&quot;font-size: 48px;&quot;&gt;1&lt;/span&gt;&lt;/font&gt;" style="edgeLabel;html=1;align=center;verticalAlign=middle;resizable=0;points=[];labelBackgroundColor=none;" parent="1" vertex="1" connectable="0">
          <mxGeometry x="-24.263417855848147" y="2724.9964635985943" as="geometry">
            <mxPoint x="2" y="-93" as="offset" />
          </mxGeometry>
        </mxCell>
        <mxCell id="8pZrykISCQyfhMCrtGH4-591" value="" style="shape=waypoint;sketch=0;fillStyle=solid;size=6;pointerEvents=1;points=[];fillColor=none;resizable=0;rotatable=0;perimeter=centerPerimeter;snapToPoint=1;strokeWidth=3;" parent="1" vertex="1">
          <mxGeometry x="-326.26000000000005" y="2688" width="20" height="20" as="geometry" />
        </mxCell>
        <mxCell id="8pZrykISCQyfhMCrtGH4-592" value="" style="shape=waypoint;sketch=0;fillStyle=solid;size=6;pointerEvents=1;points=[];fillColor=none;resizable=0;rotatable=0;perimeter=centerPerimeter;snapToPoint=1;strokeWidth=3;" parent="1" vertex="1">
          <mxGeometry x="-325.26000000000005" y="2667" width="20" height="20" as="geometry" />
        </mxCell>
        <mxCell id="8pZrykISCQyfhMCrtGH4-593" value="" style="shape=waypoint;sketch=0;fillStyle=solid;size=6;pointerEvents=1;points=[];fillColor=none;resizable=0;rotatable=0;perimeter=centerPerimeter;snapToPoint=1;strokeWidth=3;" parent="1" vertex="1">
          <mxGeometry x="-319.26000000000005" y="2646" width="20" height="20" as="geometry" />
        </mxCell>
        <mxCell id="8pZrykISCQyfhMCrtGH4-594" value="" style="shape=waypoint;sketch=0;fillStyle=solid;size=6;pointerEvents=1;points=[];fillColor=none;resizable=0;rotatable=0;perimeter=centerPerimeter;snapToPoint=1;strokeWidth=3;" parent="1" vertex="1">
          <mxGeometry x="-310.26000000000005" y="2626" width="20" height="20" as="geometry" />
        </mxCell>
        <mxCell id="8pZrykISCQyfhMCrtGH4-595" value="" style="shape=waypoint;sketch=0;fillStyle=solid;size=6;pointerEvents=1;points=[];fillColor=none;resizable=0;rotatable=0;perimeter=centerPerimeter;snapToPoint=1;strokeWidth=3;" parent="1" vertex="1">
          <mxGeometry x="-298.26000000000005" y="2606" width="20" height="20" as="geometry" />
        </mxCell>
        <mxCell id="8pZrykISCQyfhMCrtGH4-596" value="" style="shape=waypoint;sketch=0;fillStyle=solid;size=6;pointerEvents=1;points=[];fillColor=none;resizable=0;rotatable=0;perimeter=centerPerimeter;snapToPoint=1;strokeWidth=3;" parent="1" vertex="1">
          <mxGeometry x="-287.26000000000005" y="2589" width="20" height="20" as="geometry" />
        </mxCell>
        <mxCell id="8pZrykISCQyfhMCrtGH4-597" value="" style="shape=flexArrow;endArrow=classic;html=1;rounded=0;strokeWidth=4;endWidth=31.85185185185185;endSize=7.8149253731343284;width=31.044776119402986;" parent="1" edge="1">
          <mxGeometry width="50" height="50" relative="1" as="geometry">
            <mxPoint x="-602.42" y="2711" as="sourcePoint" />
            <mxPoint x="-401.26000000000005" y="2710.75" as="targetPoint" />
          </mxGeometry>
        </mxCell>
        <mxCell id="8pZrykISCQyfhMCrtGH4-598" value="" style="endArrow=block;html=1;rounded=0;strokeWidth=4;endFill=0;startArrow=none;startFill=0;endSize=28;sourcePerimeterSpacing=0;" parent="1" edge="1">
          <mxGeometry width="50" height="50" relative="1" as="geometry">
            <mxPoint x="-785.42" y="2540" as="sourcePoint" />
            <mxPoint x="-665.42" y="2270" as="targetPoint" />
          </mxGeometry>
        </mxCell>
        <mxCell id="8pZrykISCQyfhMCrtGH4-599" value="&lt;font face=&quot;MS Mincho,ＭＳ 明朝&quot; style=&quot;font-size: 48px;&quot;&gt;dequeue&lt;/font&gt;" style="edgeLabel;html=1;align=center;verticalAlign=middle;resizable=0;points=[];labelBackgroundColor=default;" parent="1" vertex="1" connectable="0">
          <mxGeometry x="-694.2634178558482" y="2439.9964635985943" as="geometry">
            <mxPoint x="2" y="-93" as="offset" />
          </mxGeometry>
        </mxCell>
        <mxCell id="8pZrykISCQyfhMCrtGH4-548" value="&lt;font face=&quot;MS Mincho, ＭＳ 明朝&quot;&gt;&lt;span style=&quot;font-size: 48px;&quot;&gt;readPtr/writePtr&lt;/span&gt;&lt;/font&gt;" style="edgeLabel;html=1;align=center;verticalAlign=middle;resizable=0;points=[];labelBackgroundColor=default;" parent="1" vertex="1" connectable="0">
          <mxGeometry x="-445.4234178558482" y="2519.9964635985943" as="geometry">
            <mxPoint x="2" y="-93" as="offset" />
          </mxGeometry>
        </mxCell>
        <mxCell id="8pZrykISCQyfhMCrtGH4-601" value="" style="endArrow=block;html=1;rounded=0;strokeWidth=4;endFill=0;startArrow=none;startFill=0;endSize=28;targetPerimeterSpacing=0;" parent="1" edge="1">
          <mxGeometry width="50" height="50" relative="1" as="geometry">
            <mxPoint x="-864.2599999999999" y="2280" as="sourcePoint" />
            <mxPoint x="-824.2599999999999" y="2550" as="targetPoint" />
          </mxGeometry>
        </mxCell>
        <mxCell id="8pZrykISCQyfhMCrtGH4-602" value="&lt;font face=&quot;MS Mincho,ＭＳ 明朝&quot; style=&quot;font-size: 48px;&quot;&gt;enqueue&lt;/font&gt;" style="edgeLabel;html=1;align=center;verticalAlign=middle;resizable=0;points=[];labelBackgroundColor=default;" parent="1" vertex="1" connectable="0">
          <mxGeometry x="-885.4234178558478" y="2479.9964635985943" as="geometry">
            <mxPoint x="2" y="-93" as="offset" />
          </mxGeometry>
        </mxCell>
        <mxCell id="8pZrykISCQyfhMCrtGH4-603" value="&lt;font face=&quot;MS Mincho, ＭＳ 明朝&quot;&gt;&lt;span style=&quot;font-size: 48px;&quot;&gt;&lt;b&gt;bypass&amp;nbsp;&lt;/b&gt;&lt;/span&gt;&lt;/font&gt;&lt;b style=&quot;font-size: 48px; font-family: &amp;quot;MS Mincho&amp;quot;, &amp;quot;ＭＳ 明朝&amp;quot;; background-color: light-dark(#ffffff, var(--ge-dark-color, #121212)); color: light-dark(rgb(0, 0, 0), rgb(255, 255, 255));&quot;&gt;read&lt;/b&gt;" style="edgeLabel;html=1;align=center;verticalAlign=middle;resizable=0;points=[];labelBackgroundColor=default;" parent="1" vertex="1" connectable="0">
          <mxGeometry x="-505.4234178558482" y="2707.9964635985943" as="geometry">
            <mxPoint x="2" y="-93" as="offset" />
          </mxGeometry>
        </mxCell>
        <mxCell id="8pZrykISCQyfhMCrtGH4-605" value="" style="shape=flexArrow;endArrow=classic;html=1;rounded=0;strokeWidth=4;endWidth=31.85185185185185;endSize=7.8149253731343284;width=31.044776119402986;" parent="1" edge="1">
          <mxGeometry width="50" height="50" relative="1" as="geometry">
            <mxPoint x="-595.42" y="1909.2000000000003" as="sourcePoint" />
            <mxPoint x="-394.26000000000005" y="1908.9500000000003" as="targetPoint" />
          </mxGeometry>
        </mxCell>
        <mxCell id="8pZrykISCQyfhMCrtGH4-606" value="&lt;font face=&quot;MS Mincho, ＭＳ 明朝&quot;&gt;&lt;span style=&quot;font-size: 48px;&quot;&gt;&lt;b&gt;write&lt;/b&gt;&lt;/span&gt;&lt;/font&gt;" style="edgeLabel;html=1;align=center;verticalAlign=middle;resizable=0;points=[];labelBackgroundColor=default;" parent="1" vertex="1" connectable="0">
          <mxGeometry x="-515.423417855848" y="1949.9964635985943" as="geometry">
            <mxPoint x="2" y="-93" as="offset" />
          </mxGeometry>
        </mxCell>
        <mxCell id="8pZrykISCQyfhMCrtGH4-608" value="&lt;font face=&quot;MS Mincho, ＭＳ 明朝&quot;&gt;&lt;span style=&quot;font-size: 48px;&quot;&gt;readPtr/writePtr&lt;/span&gt;&lt;/font&gt;" style="edgeLabel;html=1;align=center;verticalAlign=middle;resizable=0;points=[];labelBackgroundColor=default;" parent="1" vertex="1" connectable="0">
          <mxGeometry x="214.57658214415184" y="2529.9964635985943" as="geometry">
            <mxPoint x="2" y="-93" as="offset" />
          </mxGeometry>
        </mxCell>
        <mxCell id="8pZrykISCQyfhMCrtGH4-641" value="&lt;b style=&quot;font-size: 48px; font-family: &amp;quot;MS Mincho&amp;quot;, &amp;quot;ＭＳ 明朝&amp;quot;; background-color: light-dark(#ffffff, var(--ge-dark-color, #121212)); color: light-dark(rgb(0, 0, 0), rgb(255, 255, 255));&quot;&gt;read&lt;/b&gt;" style="edgeLabel;html=1;align=center;verticalAlign=middle;resizable=0;points=[];labelBackgroundColor=default;" parent="1" vertex="1" connectable="0">
          <mxGeometry x="-476.42341785584824" y="3581.9964635985943" as="geometry">
            <mxPoint x="2" y="-93" as="offset" />
          </mxGeometry>
        </mxCell>
        <mxCell id="8pZrykISCQyfhMCrtGH4-642" value="" style="shape=flexArrow;endArrow=block;html=1;rounded=0;strokeWidth=4;endWidth=31.85185185185185;endSize=7.8149253731343284;width=31.044776119402986;startFill=0;" parent="1" edge="1">
          <mxGeometry width="50" height="50" relative="1" as="geometry">
            <mxPoint x="-562.5500000000001" y="3548.580000000001" as="sourcePoint" />
            <mxPoint x="-359.12999999999994" y="3548" as="targetPoint" />
          </mxGeometry>
        </mxCell>
        <mxCell id="8pZrykISCQyfhMCrtGH4-669" value="&lt;font face=&quot;MS Mincho, ＭＳ 明朝&quot;&gt;&lt;span style=&quot;font-size: 48px;&quot;&gt;readPtr&lt;/span&gt;&lt;/font&gt;" style="edgeLabel;html=1;align=center;verticalAlign=middle;resizable=0;points=[];labelBackgroundColor=default;" parent="1" vertex="1" connectable="0">
          <mxGeometry x="-694.2634178558482" y="3319.9964635985943" as="geometry">
            <mxPoint x="2" y="-93" as="offset" />
          </mxGeometry>
        </mxCell>
        <mxCell id="8pZrykISCQyfhMCrtGH4-670" value="" style="endArrow=none;html=1;rounded=0;strokeWidth=4;exitX=0.71;exitY=0.046;exitDx=0;exitDy=0;exitPerimeter=0;endFill=1;startFill=1;startArrow=classic;" parent="1" edge="1">
          <mxGeometry width="50" height="50" relative="1" as="geometry">
            <mxPoint x="-765.42" y="3350.24" as="sourcePoint" />
            <mxPoint x="-727.82" y="3260" as="targetPoint" />
          </mxGeometry>
        </mxCell>
        <mxCell id="8pZrykISCQyfhMCrtGH4-671" value="" style="endArrow=none;html=1;rounded=0;strokeWidth=4;endFill=1;startFill=1;startArrow=classic;exitX=0.972;exitY=0.663;exitDx=0;exitDy=0;exitPerimeter=0;" parent="1" edge="1">
          <mxGeometry width="50" height="50" relative="1" as="geometry">
            <mxPoint x="-655.4200000000002" y="3640" as="sourcePoint" />
            <mxPoint x="-563.1" y="3678.2800000000007" as="targetPoint" />
          </mxGeometry>
        </mxCell>
        <mxCell id="8pZrykISCQyfhMCrtGH4-672" value="&lt;font face=&quot;MS Mincho, ＭＳ 明朝&quot;&gt;&lt;span style=&quot;font-size: 48px;&quot;&gt;writePtr&lt;/span&gt;&lt;/font&gt;" style="edgeLabel;html=1;align=center;verticalAlign=middle;resizable=0;points=[];labelBackgroundColor=default;" parent="1" vertex="1" connectable="0">
          <mxGeometry x="-484.1034178558481" y="3798.4964635985943" as="geometry">
            <mxPoint x="2" y="-93" as="offset" />
          </mxGeometry>
        </mxCell>
        <mxCell id="8pZrykISCQyfhMCrtGH4-673" value="" style="verticalLabelPosition=bottom;verticalAlign=top;html=1;shape=mxgraph.basic.partConcEllipse;startAngle=0;endAngle=0.125;arcWidth=0.58;strokeWidth=4;fillColor=#E6E6E6;" parent="1" vertex="1">
          <mxGeometry x="-1075.42" y="3331" width="440" height="440" as="geometry" />
        </mxCell>
        <mxCell id="8pZrykISCQyfhMCrtGH4-674" value="" style="verticalLabelPosition=bottom;verticalAlign=top;html=1;shape=mxgraph.basic.partConcEllipse;startAngle=0.125;endAngle=0.250;arcWidth=0.58;strokeWidth=4;fillColor=#E6E6E6;" parent="1" vertex="1">
          <mxGeometry x="-1075.42" y="3331" width="440" height="440" as="geometry" />
        </mxCell>
        <mxCell id="8pZrykISCQyfhMCrtGH4-675" value="" style="verticalLabelPosition=bottom;verticalAlign=top;html=1;shape=mxgraph.basic.partConcEllipse;startAngle=0;endAngle=0.125;arcWidth=0.58;strokeWidth=4;direction=south;fillColor=none;" parent="1" vertex="1">
          <mxGeometry x="-1075.42" y="3331" width="440" height="440" as="geometry" />
        </mxCell>
        <mxCell id="8pZrykISCQyfhMCrtGH4-676" value="" style="verticalLabelPosition=bottom;verticalAlign=top;html=1;shape=mxgraph.basic.partConcEllipse;startAngle=0.125;endAngle=0.250;arcWidth=0.58;strokeWidth=4;direction=south;fillColor=none;" parent="1" vertex="1">
          <mxGeometry x="-1075.42" y="3331" width="440" height="440" as="geometry" />
        </mxCell>
        <mxCell id="8pZrykISCQyfhMCrtGH4-677" value="" style="verticalLabelPosition=bottom;verticalAlign=top;html=1;shape=mxgraph.basic.partConcEllipse;startAngle=0;endAngle=0.125;arcWidth=0.58;strokeWidth=4;flipH=1;fillColor=none;" parent="1" vertex="1">
          <mxGeometry x="-1075.42" y="3331" width="440" height="440" as="geometry" />
        </mxCell>
        <mxCell id="8pZrykISCQyfhMCrtGH4-678" value="" style="verticalLabelPosition=bottom;verticalAlign=top;html=1;shape=mxgraph.basic.partConcEllipse;startAngle=0.125;endAngle=0.250;arcWidth=0.58;strokeWidth=4;flipH=1;fillColor=none;" parent="1" vertex="1">
          <mxGeometry x="-1075.42" y="3331" width="440" height="440" as="geometry" />
        </mxCell>
        <mxCell id="8pZrykISCQyfhMCrtGH4-679" value="" style="verticalLabelPosition=bottom;verticalAlign=top;html=1;shape=mxgraph.basic.partConcEllipse;startAngle=0;endAngle=0.125;arcWidth=0.58;strokeWidth=4;direction=south;flipH=1;fillColor=none;" parent="1" vertex="1">
          <mxGeometry x="-1075.42" y="3331" width="440" height="440" as="geometry" />
        </mxCell>
        <mxCell id="8pZrykISCQyfhMCrtGH4-680" value="" style="verticalLabelPosition=bottom;verticalAlign=top;html=1;shape=mxgraph.basic.partConcEllipse;startAngle=0.125;endAngle=0.250;arcWidth=0.58;strokeWidth=4;direction=south;flipH=1;fillColor=none;" parent="1" vertex="1">
          <mxGeometry x="-1075.42" y="3331" width="440" height="440" as="geometry" />
        </mxCell>
        <mxCell id="8pZrykISCQyfhMCrtGH4-681" value="&lt;font face=&quot;MS Mincho, ＭＳ 明朝&quot;&gt;&lt;span style=&quot;font-size: 48px;&quot;&gt;0&lt;/span&gt;&lt;/font&gt;" style="edgeLabel;html=1;align=center;verticalAlign=middle;resizable=0;points=[];labelBackgroundColor=none;" parent="1" vertex="1" connectable="0">
          <mxGeometry x="-795.423417855848" y="3496.9964635985943" as="geometry">
            <mxPoint x="2" y="-93" as="offset" />
          </mxGeometry>
        </mxCell>
        <mxCell id="8pZrykISCQyfhMCrtGH4-682" value="&lt;font face=&quot;MS Mincho, ＭＳ 明朝&quot;&gt;&lt;span style=&quot;font-size: 48px;&quot;&gt;31&lt;/span&gt;&lt;/font&gt;" style="edgeLabel;html=1;align=center;verticalAlign=middle;resizable=0;points=[];labelBackgroundColor=default;" parent="1" vertex="1" connectable="0">
          <mxGeometry x="-925.423417855848" y="3496.9964635985943" as="geometry">
            <mxPoint x="2" y="-93" as="offset" />
          </mxGeometry>
        </mxCell>
        <mxCell id="8pZrykISCQyfhMCrtGH4-683" value="&lt;font face=&quot;MS Mincho, ＭＳ 明朝&quot;&gt;&lt;span style=&quot;font-size: 48px;&quot;&gt;2&lt;/span&gt;&lt;/font&gt;" style="edgeLabel;html=1;align=center;verticalAlign=middle;resizable=0;points=[];labelBackgroundColor=default;" parent="1" vertex="1" connectable="0">
          <mxGeometry x="-705.423417855848" y="3696.9964635985943" as="geometry">
            <mxPoint x="2" y="-93" as="offset" />
          </mxGeometry>
        </mxCell>
        <mxCell id="8pZrykISCQyfhMCrtGH4-684" value="&lt;font face=&quot;MS Mincho, ＭＳ 明朝&quot;&gt;&lt;span style=&quot;font-size: 48px;&quot;&gt;3&lt;/span&gt;&lt;/font&gt;" style="edgeLabel;html=1;align=center;verticalAlign=middle;resizable=0;points=[];labelBackgroundColor=default;" parent="1" vertex="1" connectable="0">
          <mxGeometry x="-795.423417855848" y="3776.9964635985943" as="geometry">
            <mxPoint x="2" y="-93" as="offset" />
          </mxGeometry>
        </mxCell>
        <mxCell id="8pZrykISCQyfhMCrtGH4-685" value="&lt;font face=&quot;MS Mincho, ＭＳ 明朝&quot;&gt;&lt;span style=&quot;font-size: 48px;&quot;&gt;4&lt;/span&gt;&lt;/font&gt;" style="edgeLabel;html=1;align=center;verticalAlign=middle;resizable=0;points=[];labelBackgroundColor=default;" parent="1" vertex="1" connectable="0">
          <mxGeometry x="-915.423417855848" y="3776.9964635985943" as="geometry">
            <mxPoint x="2" y="-93" as="offset" />
          </mxGeometry>
        </mxCell>
        <mxCell id="8pZrykISCQyfhMCrtGH4-686" value="&lt;font face=&quot;MS Mincho, ＭＳ 明朝&quot;&gt;&lt;span style=&quot;font-size: 48px;&quot;&gt;5&lt;/span&gt;&lt;/font&gt;" style="edgeLabel;html=1;align=center;verticalAlign=middle;resizable=0;points=[];labelBackgroundColor=default;" parent="1" vertex="1" connectable="0">
          <mxGeometry x="-1015.423417855848" y="3696.9964635985943" as="geometry">
            <mxPoint x="2" y="-93" as="offset" />
          </mxGeometry>
        </mxCell>
        <mxCell id="8pZrykISCQyfhMCrtGH4-687" value="&lt;font face=&quot;MS Mincho, ＭＳ 明朝&quot;&gt;&lt;span style=&quot;font-size: 48px;&quot;&gt;1&lt;/span&gt;&lt;/font&gt;" style="edgeLabel;html=1;align=center;verticalAlign=middle;resizable=0;points=[];labelBackgroundColor=none;" parent="1" vertex="1" connectable="0">
          <mxGeometry x="-725.423417855848" y="3566.9964635985943" as="geometry">
            <mxPoint x="2" y="-93" as="offset" />
          </mxGeometry>
        </mxCell>
        <mxCell id="8pZrykISCQyfhMCrtGH4-688" value="" style="shape=waypoint;sketch=0;fillStyle=solid;size=6;pointerEvents=1;points=[];fillColor=none;resizable=0;rotatable=0;perimeter=centerPerimeter;snapToPoint=1;strokeWidth=3;" parent="1" vertex="1">
          <mxGeometry x="-1027.42" y="3530" width="20" height="20" as="geometry" />
        </mxCell>
        <mxCell id="8pZrykISCQyfhMCrtGH4-689" value="" style="shape=waypoint;sketch=0;fillStyle=solid;size=6;pointerEvents=1;points=[];fillColor=none;resizable=0;rotatable=0;perimeter=centerPerimeter;snapToPoint=1;strokeWidth=3;" parent="1" vertex="1">
          <mxGeometry x="-1026.42" y="3509" width="20" height="20" as="geometry" />
        </mxCell>
        <mxCell id="8pZrykISCQyfhMCrtGH4-690" value="" style="shape=waypoint;sketch=0;fillStyle=solid;size=6;pointerEvents=1;points=[];fillColor=none;resizable=0;rotatable=0;perimeter=centerPerimeter;snapToPoint=1;strokeWidth=3;" parent="1" vertex="1">
          <mxGeometry x="-1020.42" y="3488" width="20" height="20" as="geometry" />
        </mxCell>
        <mxCell id="8pZrykISCQyfhMCrtGH4-691" value="" style="shape=waypoint;sketch=0;fillStyle=solid;size=6;pointerEvents=1;points=[];fillColor=none;resizable=0;rotatable=0;perimeter=centerPerimeter;snapToPoint=1;strokeWidth=3;" parent="1" vertex="1">
          <mxGeometry x="-1011.42" y="3468" width="20" height="20" as="geometry" />
        </mxCell>
        <mxCell id="8pZrykISCQyfhMCrtGH4-692" value="" style="shape=waypoint;sketch=0;fillStyle=solid;size=6;pointerEvents=1;points=[];fillColor=none;resizable=0;rotatable=0;perimeter=centerPerimeter;snapToPoint=1;strokeWidth=3;" parent="1" vertex="1">
          <mxGeometry x="-999.42" y="3448" width="20" height="20" as="geometry" />
        </mxCell>
        <mxCell id="8pZrykISCQyfhMCrtGH4-693" value="" style="shape=waypoint;sketch=0;fillStyle=solid;size=6;pointerEvents=1;points=[];fillColor=none;resizable=0;rotatable=0;perimeter=centerPerimeter;snapToPoint=1;strokeWidth=3;" parent="1" vertex="1">
          <mxGeometry x="-988.42" y="3431" width="20" height="20" as="geometry" />
        </mxCell>
        <mxCell id="8pZrykISCQyfhMCrtGH4-694" value="" style="endArrow=none;html=1;rounded=0;strokeWidth=4;exitX=0.94;exitY=0.258;exitDx=0;exitDy=0;exitPerimeter=0;endFill=1;startFill=1;startArrow=classic;" parent="1" edge="1">
          <mxGeometry width="50" height="50" relative="1" as="geometry">
            <mxPoint x="117.53000000000057" y="3459.0199999999995" as="sourcePoint" />
            <mxPoint x="292.7699999999999" y="3316.5" as="targetPoint" />
          </mxGeometry>
        </mxCell>
        <mxCell id="8pZrykISCQyfhMCrtGH4-695" value="" style="endArrow=none;html=1;rounded=0;strokeWidth=4;endFill=1;startFill=1;startArrow=classic;exitX=0.972;exitY=0.663;exitDx=0;exitDy=0;exitPerimeter=0;" parent="1" edge="1">
          <mxGeometry width="50" height="50" relative="1" as="geometry">
            <mxPoint x="114.57999999999961" y="3625.5" as="sourcePoint" />
            <mxPoint x="206.89999999999978" y="3663.7800000000007" as="targetPoint" />
          </mxGeometry>
        </mxCell>
        <mxCell id="8pZrykISCQyfhMCrtGH4-696" value="&lt;font face=&quot;MS Mincho, ＭＳ 明朝&quot;&gt;&lt;span style=&quot;font-size: 48px;&quot;&gt;writePtr&lt;/span&gt;&lt;/font&gt;" style="edgeLabel;html=1;align=center;verticalAlign=middle;resizable=0;points=[];labelBackgroundColor=default;" parent="1" vertex="1" connectable="0">
          <mxGeometry x="235.73658214415164" y="3785.4964635985943" as="geometry">
            <mxPoint x="2" y="-93" as="offset" />
          </mxGeometry>
        </mxCell>
        <mxCell id="8pZrykISCQyfhMCrtGH4-697" value="" style="verticalLabelPosition=bottom;verticalAlign=top;html=1;shape=mxgraph.basic.partConcEllipse;startAngle=0;endAngle=0.125;arcWidth=0.58;strokeWidth=4;fillColor=none;" parent="1" vertex="1">
          <mxGeometry x="-305.42000000000013" y="3316.5" width="440" height="440" as="geometry" />
        </mxCell>
        <mxCell id="8pZrykISCQyfhMCrtGH4-698" value="" style="verticalLabelPosition=bottom;verticalAlign=top;html=1;shape=mxgraph.basic.partConcEllipse;startAngle=0.125;endAngle=0.250;arcWidth=0.58;strokeWidth=4;fillColor=#E6E6E6;" parent="1" vertex="1">
          <mxGeometry x="-305.42000000000013" y="3316.5" width="440" height="440" as="geometry" />
        </mxCell>
        <mxCell id="8pZrykISCQyfhMCrtGH4-699" value="" style="verticalLabelPosition=bottom;verticalAlign=top;html=1;shape=mxgraph.basic.partConcEllipse;startAngle=0;endAngle=0.125;arcWidth=0.58;strokeWidth=4;direction=south;fillColor=none;" parent="1" vertex="1">
          <mxGeometry x="-305.42000000000013" y="3316.5" width="440" height="440" as="geometry" />
        </mxCell>
        <mxCell id="8pZrykISCQyfhMCrtGH4-700" value="" style="verticalLabelPosition=bottom;verticalAlign=top;html=1;shape=mxgraph.basic.partConcEllipse;startAngle=0.125;endAngle=0.250;arcWidth=0.58;strokeWidth=4;direction=south;fillColor=none;" parent="1" vertex="1">
          <mxGeometry x="-305.42000000000013" y="3316.5" width="440" height="440" as="geometry" />
        </mxCell>
        <mxCell id="8pZrykISCQyfhMCrtGH4-701" value="" style="verticalLabelPosition=bottom;verticalAlign=top;html=1;shape=mxgraph.basic.partConcEllipse;startAngle=0;endAngle=0.125;arcWidth=0.58;strokeWidth=4;flipH=1;fillColor=none;" parent="1" vertex="1">
          <mxGeometry x="-305.42000000000013" y="3316.5" width="440" height="440" as="geometry" />
        </mxCell>
        <mxCell id="8pZrykISCQyfhMCrtGH4-702" value="" style="verticalLabelPosition=bottom;verticalAlign=top;html=1;shape=mxgraph.basic.partConcEllipse;startAngle=0.125;endAngle=0.250;arcWidth=0.58;strokeWidth=4;flipH=1;fillColor=none;" parent="1" vertex="1">
          <mxGeometry x="-305.42000000000013" y="3316.5" width="440" height="440" as="geometry" />
        </mxCell>
        <mxCell id="8pZrykISCQyfhMCrtGH4-703" value="" style="verticalLabelPosition=bottom;verticalAlign=top;html=1;shape=mxgraph.basic.partConcEllipse;startAngle=0;endAngle=0.125;arcWidth=0.58;strokeWidth=4;direction=south;flipH=1;fillColor=none;" parent="1" vertex="1">
          <mxGeometry x="-305.42000000000013" y="3316.5" width="440" height="440" as="geometry" />
        </mxCell>
        <mxCell id="8pZrykISCQyfhMCrtGH4-704" value="" style="verticalLabelPosition=bottom;verticalAlign=top;html=1;shape=mxgraph.basic.partConcEllipse;startAngle=0.125;endAngle=0.250;arcWidth=0.58;strokeWidth=4;direction=south;flipH=1;fillColor=none;" parent="1" vertex="1">
          <mxGeometry x="-305.42000000000013" y="3316.5" width="440" height="440" as="geometry" />
        </mxCell>
        <mxCell id="8pZrykISCQyfhMCrtGH4-705" value="&lt;font face=&quot;MS Mincho, ＭＳ 明朝&quot;&gt;&lt;span style=&quot;font-size: 48px;&quot;&gt;0&lt;/span&gt;&lt;/font&gt;" style="edgeLabel;html=1;align=center;verticalAlign=middle;resizable=0;points=[];labelBackgroundColor=none;" parent="1" vertex="1" connectable="0">
          <mxGeometry x="-25.42341785584818" y="3482.4964635985943" as="geometry">
            <mxPoint x="2" y="-93" as="offset" />
          </mxGeometry>
        </mxCell>
        <mxCell id="8pZrykISCQyfhMCrtGH4-706" value="&lt;font face=&quot;MS Mincho, ＭＳ 明朝&quot;&gt;&lt;span style=&quot;font-size: 48px;&quot;&gt;31&lt;/span&gt;&lt;/font&gt;" style="edgeLabel;html=1;align=center;verticalAlign=middle;resizable=0;points=[];labelBackgroundColor=default;" parent="1" vertex="1" connectable="0">
          <mxGeometry x="-155.4234178558482" y="3482.4964635985943" as="geometry">
            <mxPoint x="2" y="-93" as="offset" />
          </mxGeometry>
        </mxCell>
        <mxCell id="8pZrykISCQyfhMCrtGH4-707" value="&lt;font face=&quot;MS Mincho, ＭＳ 明朝&quot;&gt;&lt;span style=&quot;font-size: 48px;&quot;&gt;2&lt;/span&gt;&lt;/font&gt;" style="edgeLabel;html=1;align=center;verticalAlign=middle;resizable=0;points=[];labelBackgroundColor=default;" parent="1" vertex="1" connectable="0">
          <mxGeometry x="64.57658214415167" y="3682.4964635985943" as="geometry">
            <mxPoint x="2" y="-93" as="offset" />
          </mxGeometry>
        </mxCell>
        <mxCell id="8pZrykISCQyfhMCrtGH4-708" value="&lt;font face=&quot;MS Mincho, ＭＳ 明朝&quot;&gt;&lt;span style=&quot;font-size: 48px;&quot;&gt;3&lt;/span&gt;&lt;/font&gt;" style="edgeLabel;html=1;align=center;verticalAlign=middle;resizable=0;points=[];labelBackgroundColor=default;" parent="1" vertex="1" connectable="0">
          <mxGeometry x="-25.42341785584818" y="3762.4964635985943" as="geometry">
            <mxPoint x="2" y="-93" as="offset" />
          </mxGeometry>
        </mxCell>
        <mxCell id="8pZrykISCQyfhMCrtGH4-709" value="&lt;font face=&quot;MS Mincho, ＭＳ 明朝&quot;&gt;&lt;span style=&quot;font-size: 48px;&quot;&gt;4&lt;/span&gt;&lt;/font&gt;" style="edgeLabel;html=1;align=center;verticalAlign=middle;resizable=0;points=[];labelBackgroundColor=default;" parent="1" vertex="1" connectable="0">
          <mxGeometry x="-145.4234178558482" y="3762.4964635985943" as="geometry">
            <mxPoint x="2" y="-93" as="offset" />
          </mxGeometry>
        </mxCell>
        <mxCell id="8pZrykISCQyfhMCrtGH4-710" value="&lt;font face=&quot;MS Mincho, ＭＳ 明朝&quot;&gt;&lt;span style=&quot;font-size: 48px;&quot;&gt;5&lt;/span&gt;&lt;/font&gt;" style="edgeLabel;html=1;align=center;verticalAlign=middle;resizable=0;points=[];labelBackgroundColor=default;" parent="1" vertex="1" connectable="0">
          <mxGeometry x="-245.42341785584821" y="3682.4964635985943" as="geometry">
            <mxPoint x="2" y="-93" as="offset" />
          </mxGeometry>
        </mxCell>
        <mxCell id="8pZrykISCQyfhMCrtGH4-711" value="&lt;font face=&quot;MS Mincho, ＭＳ 明朝&quot;&gt;&lt;span style=&quot;font-size: 48px;&quot;&gt;1&lt;/span&gt;&lt;/font&gt;" style="edgeLabel;html=1;align=center;verticalAlign=middle;resizable=0;points=[];labelBackgroundColor=none;" parent="1" vertex="1" connectable="0">
          <mxGeometry x="44.5765821441517" y="3552.4964635985943" as="geometry">
            <mxPoint x="2" y="-93" as="offset" />
          </mxGeometry>
        </mxCell>
        <mxCell id="8pZrykISCQyfhMCrtGH4-712" value="" style="shape=waypoint;sketch=0;fillStyle=solid;size=6;pointerEvents=1;points=[];fillColor=none;resizable=0;rotatable=0;perimeter=centerPerimeter;snapToPoint=1;strokeWidth=3;" parent="1" vertex="1">
          <mxGeometry x="-257.42000000000013" y="3515.5" width="20" height="20" as="geometry" />
        </mxCell>
        <mxCell id="8pZrykISCQyfhMCrtGH4-713" value="" style="shape=waypoint;sketch=0;fillStyle=solid;size=6;pointerEvents=1;points=[];fillColor=none;resizable=0;rotatable=0;perimeter=centerPerimeter;snapToPoint=1;strokeWidth=3;" parent="1" vertex="1">
          <mxGeometry x="-256.42000000000013" y="3494.5" width="20" height="20" as="geometry" />
        </mxCell>
        <mxCell id="8pZrykISCQyfhMCrtGH4-714" value="" style="shape=waypoint;sketch=0;fillStyle=solid;size=6;pointerEvents=1;points=[];fillColor=none;resizable=0;rotatable=0;perimeter=centerPerimeter;snapToPoint=1;strokeWidth=3;" parent="1" vertex="1">
          <mxGeometry x="-250.42000000000016" y="3473.5" width="20" height="20" as="geometry" />
        </mxCell>
        <mxCell id="8pZrykISCQyfhMCrtGH4-715" value="" style="shape=waypoint;sketch=0;fillStyle=solid;size=6;pointerEvents=1;points=[];fillColor=none;resizable=0;rotatable=0;perimeter=centerPerimeter;snapToPoint=1;strokeWidth=3;" parent="1" vertex="1">
          <mxGeometry x="-241.42000000000016" y="3453.5" width="20" height="20" as="geometry" />
        </mxCell>
        <mxCell id="8pZrykISCQyfhMCrtGH4-716" value="" style="shape=waypoint;sketch=0;fillStyle=solid;size=6;pointerEvents=1;points=[];fillColor=none;resizable=0;rotatable=0;perimeter=centerPerimeter;snapToPoint=1;strokeWidth=3;" parent="1" vertex="1">
          <mxGeometry x="-229.42000000000016" y="3433.5" width="20" height="20" as="geometry" />
        </mxCell>
        <mxCell id="8pZrykISCQyfhMCrtGH4-717" value="" style="shape=waypoint;sketch=0;fillStyle=solid;size=6;pointerEvents=1;points=[];fillColor=none;resizable=0;rotatable=0;perimeter=centerPerimeter;snapToPoint=1;strokeWidth=3;" parent="1" vertex="1">
          <mxGeometry x="-218.42000000000016" y="3416.5" width="20" height="20" as="geometry" />
        </mxCell>
        <mxCell id="8pZrykISCQyfhMCrtGH4-718" value="" style="endArrow=block;html=1;rounded=0;strokeWidth=4;endFill=0;startArrow=none;startFill=0;endSize=28;sourcePerimeterSpacing=0;" parent="1" edge="1">
          <mxGeometry width="50" height="50" relative="1" as="geometry">
            <mxPoint x="-824.2600000000001" y="3379" as="sourcePoint" />
            <mxPoint x="-814.2600000000001" y="3160" as="targetPoint" />
          </mxGeometry>
        </mxCell>
        <mxCell id="8pZrykISCQyfhMCrtGH4-719" value="&lt;font face=&quot;MS Mincho,ＭＳ 明朝&quot; style=&quot;font-size: 48px;&quot;&gt;dequeue&lt;/font&gt;" style="edgeLabel;html=1;align=center;verticalAlign=middle;resizable=0;points=[];labelBackgroundColor=default;" parent="1" vertex="1" connectable="0">
          <mxGeometry x="-844.2634178558482" y="3379.9964635985943" as="geometry">
            <mxPoint x="2" y="-93" as="offset" />
          </mxGeometry>
        </mxCell>
        <mxCell id="8pZrykISCQyfhMCrtGH4-720" value="&lt;font face=&quot;MS Mincho, ＭＳ 明朝&quot;&gt;&lt;span style=&quot;font-size: 48px;&quot;&gt;readPtr&lt;/span&gt;&lt;/font&gt;" style="edgeLabel;html=1;align=center;verticalAlign=middle;resizable=0;points=[];labelBackgroundColor=default;" parent="1" vertex="1" connectable="0">
          <mxGeometry x="267.52658214415186" y="3436.4964635985943" as="geometry">
            <mxPoint x="2" y="-93" as="offset" />
          </mxGeometry>
        </mxCell>
        <mxCell id="8pZrykISCQyfhMCrtGH4-751" value="" style="endArrow=block;html=1;rounded=0;strokeWidth=4;endFill=0;startArrow=none;startFill=0;endSize=28;sourcePerimeterSpacing=0;" parent="1" edge="1">
          <mxGeometry width="50" height="50" relative="1" as="geometry">
            <mxPoint x="-381.67999999999995" y="4135.33" as="sourcePoint" />
            <mxPoint x="20.32" y="4135.33" as="targetPoint" />
          </mxGeometry>
        </mxCell>
        <mxCell id="albwyUn2OrWFe38uf6lZ-1" value="&lt;span style=&quot;font-family: &amp;quot;MS Mincho&amp;quot;, &amp;quot;ＭＳ 明朝&amp;quot;; font-size: 62px; text-wrap-mode: nowrap;&quot;&gt;MUX&lt;/span&gt;" style="shape=trapezoid;perimeter=trapezoidPerimeter;whiteSpace=wrap;html=1;fixedSize=1;fillColor=default;strokeWidth=4;direction=south;size=42.000000000000455;movable=1;resizable=1;rotatable=1;deletable=1;editable=1;locked=0;connectable=1;container=0;textDirection=vertical-lr;" parent="1" vertex="1">
          <mxGeometry x="-491.67999999999995" y="4027" width="110" height="212" as="geometry" />
        </mxCell>
        <mxCell id="albwyUn2OrWFe38uf6lZ-3" value="" style="endArrow=classic;html=1;rounded=0;strokeWidth=4;endFill=1;startArrow=none;startFill=0;endSize=28;targetPerimeterSpacing=0;entryX=-0.004;entryY=0.364;entryDx=0;entryDy=0;entryPerimeter=0;" parent="1" edge="1">
          <mxGeometry width="50" height="50" relative="1" as="geometry">
            <mxPoint x="-865.26" y="4087" as="sourcePoint" />
            <mxPoint x="-495.26" y="4087" as="targetPoint" />
          </mxGeometry>
        </mxCell>
        <mxCell id="albwyUn2OrWFe38uf6lZ-5" value="" style="endArrow=classic;html=1;rounded=0;strokeWidth=4;endFill=1;startArrow=none;startFill=0;endSize=28;targetPerimeterSpacing=0;entryX=-0.004;entryY=0.364;entryDx=0;entryDy=0;entryPerimeter=0;" parent="1" edge="1">
          <mxGeometry width="50" height="50" relative="1" as="geometry">
            <mxPoint x="-865.26" y="4177" as="sourcePoint" />
            <mxPoint x="-495.26" y="4177" as="targetPoint" />
          </mxGeometry>
        </mxCell>
        <mxCell id="8pZrykISCQyfhMCrtGH4-752" value="&lt;font face=&quot;MS Mincho,ＭＳ 明朝&quot; style=&quot;font-size: 48px;&quot;&gt;entries_0&lt;/font&gt;&lt;div&gt;&lt;font face=&quot;MS Mincho,ＭＳ 明朝&quot; style=&quot;font-size: 48px;&quot;&gt;0&lt;/font&gt;&lt;/div&gt;" style="edgeLabel;html=1;align=center;verticalAlign=middle;resizable=0;points=[];labelBackgroundColor=default;" parent="1" vertex="1" connectable="0">
          <mxGeometry x="-721.6834178558482" y="4116.996463598594" as="geometry">
            <mxPoint x="2" y="-93" as="offset" />
          </mxGeometry>
        </mxCell>
        <mxCell id="albwyUn2OrWFe38uf6lZ-2" value="&lt;font face=&quot;MS Mincho,ＭＳ 明朝&quot; style=&quot;font-size: 48px;&quot;&gt;entries_0&lt;/font&gt;&lt;div&gt;&lt;font face=&quot;MS Mincho, ＭＳ 明朝&quot;&gt;&lt;span style=&quot;font-size: 48px;&quot;&gt;gpf_entry&lt;/span&gt;&lt;/font&gt;&lt;/div&gt;" style="edgeLabel;html=1;align=center;verticalAlign=middle;resizable=0;points=[];labelBackgroundColor=default;" parent="1" vertex="1" connectable="0">
          <mxGeometry x="-721.6834178558482" y="4336.996463598594" as="geometry">
            <mxPoint x="2" y="-93" as="offset" />
          </mxGeometry>
        </mxCell>
        <mxCell id="albwyUn2OrWFe38uf6lZ-6" value="" style="endArrow=classic;html=1;rounded=0;strokeWidth=4;endFill=1;startArrow=none;startFill=0;endSize=28;targetPerimeterSpacing=0;" parent="1" edge="1">
          <mxGeometry width="50" height="50" relative="1" as="geometry">
            <mxPoint x="-432.43999999999994" y="3849" as="sourcePoint" />
            <mxPoint x="-432.43999999999994" y="4049" as="targetPoint" />
          </mxGeometry>
        </mxCell>
        <mxCell id="8pZrykISCQyfhMCrtGH4-723" value="&lt;font face=&quot;MS Mincho, ＭＳ 明朝&quot;&gt;&lt;span style=&quot;font-size: 48px;&quot;&gt;gpf_hit&lt;/span&gt;&lt;/font&gt;" style="edgeLabel;html=1;align=center;verticalAlign=middle;resizable=0;points=[];labelBackgroundColor=default;" parent="1" vertex="1" connectable="0">
          <mxGeometry x="-436.6834178558481" y="3989.9964635985943" as="geometry">
            <mxPoint x="2" y="-93" as="offset" />
          </mxGeometry>
        </mxCell>
        <mxCell id="albwyUn2OrWFe38uf6lZ-7" value="&lt;font face=&quot;MS Mincho, ＭＳ 明朝&quot;&gt;&lt;span style=&quot;font-size: 48px;&quot;&gt;read_bits&lt;/span&gt;&lt;/font&gt;" style="edgeLabel;html=1;align=center;verticalAlign=middle;resizable=0;points=[];labelBackgroundColor=default;" parent="1" vertex="1" connectable="0">
          <mxGeometry x="-198.4234178558483" y="4219.996463598594" as="geometry">
            <mxPoint x="2" y="-93" as="offset" />
          </mxGeometry>
        </mxCell>
      </root>
    </mxGraphModel>
  </diagram>
</mxfile>
